<svg width="701" height="701" viewBox="0 0 701 701" fill="none" xmlns="http://www.w3.org/2000/svg">
<path d="M217.168 300.641C217.168 308.156 217.979 314.248 219.397 318.716C221.019 323.184 223.045 328.058 225.882 333.339C226.895 334.963 227.301 336.588 227.301 338.01C227.301 340.041 226.085 342.072 223.45 344.103L210.684 352.632C208.86 353.851 207.036 354.46 205.415 354.46C203.389 354.46 201.362 353.445 199.336 351.617C196.499 348.571 194.067 345.321 192.04 342.072C190.014 338.619 187.988 334.76 185.758 330.089C169.952 348.774 150.093 358.116 126.181 358.116C109.159 358.116 95.5816 353.242 85.652 343.493C75.7224 333.745 70.6562 320.747 70.6562 304.5C70.6562 287.237 76.7356 273.224 89.0969 262.663C101.458 252.103 117.872 246.822 138.745 246.822C145.635 246.822 152.727 247.432 160.225 248.447C167.723 249.463 175.424 251.087 183.529 252.915V238.09C183.529 222.655 180.287 211.891 174.005 205.595C167.52 199.299 156.578 196.253 140.974 196.253C133.881 196.253 126.586 197.065 119.088 198.893C111.59 200.721 104.295 202.955 97.2027 205.798C93.9604 207.22 91.5287 208.032 90.1101 208.438C88.6916 208.845 87.6784 209.048 86.8678 209.048C84.0308 209.048 82.6123 207.017 82.6123 202.752V192.8C82.6123 189.551 83.0176 187.114 84.0308 185.692C85.044 184.271 86.8678 182.849 89.7049 181.427C96.7974 177.772 105.308 174.725 115.238 172.288C125.168 169.648 135.705 168.43 146.851 168.43C170.965 168.43 188.595 173.913 199.944 184.88C211.089 195.847 216.763 212.5 216.763 234.84V300.641H217.168ZM134.895 331.511C141.582 331.511 148.472 330.292 155.767 327.855C163.062 325.418 169.547 320.95 175.018 314.858C178.261 310.999 180.692 306.734 181.908 301.86C183.124 296.986 183.935 291.096 183.935 284.191V275.661C178.058 274.24 171.776 273.021 165.291 272.209C158.807 271.396 152.525 270.99 146.243 270.99C132.666 270.99 122.736 273.63 116.049 279.114C109.361 284.597 106.119 292.315 106.119 302.469C106.119 312.014 108.551 319.122 113.617 323.997C118.48 329.074 125.573 331.511 134.895 331.511ZM297.618 353.445C293.971 353.445 291.539 352.835 289.918 351.414C288.297 350.195 286.878 347.352 285.662 343.493L238.041 186.505C236.825 182.443 236.217 179.803 236.217 178.381C236.217 175.132 237.838 173.304 241.08 173.304H260.94C264.79 173.304 267.424 173.913 268.843 175.335C270.464 176.553 271.68 179.396 272.896 183.255L306.94 317.701L338.553 183.255C339.566 179.193 340.782 176.553 342.403 175.335C344.024 174.116 346.861 173.304 350.509 173.304H366.72C370.57 173.304 373.205 173.913 374.826 175.335C376.447 176.553 377.866 179.396 378.676 183.255L410.694 319.326L445.752 183.255C446.967 179.193 448.386 176.553 449.805 175.335C451.426 174.116 454.06 173.304 457.708 173.304H476.554C479.796 173.304 481.62 174.929 481.62 178.381C481.62 179.396 481.417 180.412 481.214 181.63C481.012 182.849 480.607 184.474 479.796 186.708L430.959 343.696C429.743 347.758 428.324 350.398 426.703 351.617C425.082 352.835 422.447 353.648 419.003 353.648H401.575C397.725 353.648 395.09 353.039 393.469 351.617C391.848 350.195 390.43 347.555 389.619 343.493L358.209 212.5L327.002 343.29C325.989 347.352 324.773 349.992 323.152 351.414C321.53 352.835 318.693 353.445 315.046 353.445H297.618ZM558.017 358.928C547.479 358.928 536.942 357.71 526.81 355.273C516.677 352.835 508.774 350.195 503.505 347.149C500.263 345.321 498.034 343.29 497.223 341.462C496.413 339.635 496.008 337.604 496.008 335.776V325.418C496.008 321.153 497.629 319.122 500.668 319.122C501.884 319.122 503.1 319.326 504.316 319.732C505.532 320.138 507.356 320.95 509.382 321.763C516.272 324.809 523.77 327.246 531.673 328.871C539.779 330.496 547.682 331.308 555.788 331.308C568.554 331.308 578.484 329.074 585.374 324.606C592.264 320.138 595.911 313.639 595.911 305.312C595.911 299.626 594.088 294.955 590.44 291.096C586.792 287.237 579.902 283.785 569.973 280.535L540.589 271.396C525.796 266.725 514.853 259.82 508.166 250.681C501.479 241.745 498.034 231.794 498.034 221.233C498.034 212.703 499.858 205.189 503.505 198.69C507.153 192.191 512.016 186.505 518.096 182.037C524.175 177.366 531.065 173.913 539.171 171.476C547.277 169.039 555.788 168.023 564.704 168.023C569.162 168.023 573.823 168.227 578.281 168.836C582.942 169.445 587.198 170.257 591.453 171.07C595.506 172.085 599.356 173.101 603.004 174.319C606.652 175.538 609.489 176.756 611.515 177.975C614.352 179.6 616.378 181.224 617.594 183.052C618.81 184.677 619.418 186.911 619.418 189.754V199.299C619.418 203.564 617.797 205.798 614.757 205.798C613.136 205.798 610.502 204.986 607.057 203.361C595.506 198.081 582.537 195.441 568.149 195.441C556.598 195.441 547.479 197.268 541.197 201.127C534.915 204.986 531.673 210.875 531.673 219.202C531.673 224.889 533.699 229.763 537.752 233.622C541.805 237.48 549.303 241.339 560.043 244.791L588.819 253.931C603.409 258.602 613.947 265.101 620.229 273.427C626.511 281.754 629.55 291.299 629.55 301.86C629.55 310.593 627.727 318.513 624.282 325.418C620.634 332.323 615.771 338.416 609.489 343.29C603.207 348.367 595.709 352.023 586.995 354.663C577.876 357.506 568.352 358.928 558.017 358.928Z" fill="white"/>
<path fill-rule="evenodd" clip-rule="evenodd" d="M596.314 457.626C529.644 506.977 432.78 533.175 349.493 533.175C232.77 533.175 127.597 489.917 48.1602 418.023C41.8782 412.337 47.5523 404.619 55.0501 409.087C140.971 459.047 246.955 489.308 356.585 489.308C430.551 489.308 511.811 473.873 586.587 442.191C597.733 437.114 607.257 449.502 596.314 457.626Z" fill="white"/>
<path fill-rule="evenodd" clip-rule="evenodd" d="M624.072 425.946C615.561 414.979 567.737 420.666 546.054 423.306C539.57 424.118 538.556 418.432 544.433 414.167C582.53 387.359 645.147 395.076 652.443 404.012C659.738 413.151 650.416 475.906 614.751 505.964C609.279 510.635 604.011 508.198 606.442 502.105C614.548 481.999 632.583 436.71 624.072 425.946Z" fill="white"/>
</svg>
