<svg width="701" height="701" viewBox="0 0 701 701" fill="none" xmlns="http://www.w3.org/2000/svg">
<path d="M60.4644 76.0065C57.5908 75.9695 54.7439 76.561 52.1236 77.7396C49.5034 78.9181 47.1732 80.655 45.2967 82.8285C43.4203 85.0019 42.043 87.5591 41.2617 90.3206C40.4804 93.082 40.3139 95.9808 40.774 98.8133L124.36 605.479C125.401 611.679 128.597 617.314 133.387 621.395C138.176 625.476 144.252 627.742 150.548 627.794H551.545C556.264 627.855 560.849 626.22 564.463 623.189C568.077 620.158 570.48 615.931 571.235 611.279L655.018 99.0099C655.478 96.1774 655.312 93.2786 654.53 90.5172C653.749 87.7557 652.372 85.1985 650.495 83.0251C648.619 80.8516 646.289 79.1147 643.669 77.9362C641.048 76.7577 638.201 76.1661 635.328 76.2031L60.4644 76.0065ZM412.432 442.194H284.444L249.788 261.509H443.444L412.432 442.194Z" fill="white"/>
<path d="M628.239 261.508H443.444L412.432 442.193H284.444L133.319 621.404C138.109 625.54 144.216 627.839 150.548 627.892H551.643C556.363 627.953 560.947 626.318 564.562 623.287C568.176 620.256 570.579 616.029 571.334 611.377L628.239 261.508Z" fill="white"/>
</svg>
