<svg width="701" height="701" viewBox="0 0 701 701" fill="none" xmlns="http://www.w3.org/2000/svg">
<path d="M364.578 261.601L402.992 239.404L514.304 432.193L475.891 454.39L364.578 261.601ZM187.198 431.844L298.14 239.688L336.684 261.951L225.743 454.107L187.198 431.844Z" fill="white"/>
<path d="M432.173 94.5889H269.22C252.947 94.5889 239.755 107.781 239.755 124.054V250.645C239.755 266.918 252.947 280.11 269.22 280.11H432.173C448.446 280.11 461.638 266.918 461.638 250.645V124.054C461.638 107.781 448.446 94.5889 432.173 94.5889Z" fill="white"/>
<path d="M594.886 421.105H431.933C415.66 421.105 402.468 434.297 402.468 450.571V577.161C402.468 593.435 415.66 606.626 431.933 606.626H594.886C611.159 606.626 624.351 593.435 624.351 577.161V450.571C624.351 434.297 611.159 421.105 594.886 421.105Z" fill="white"/>
<path d="M269.46 421.105H106.507C90.2343 421.105 77.0424 434.297 77.0424 450.571V577.161C77.0424 593.435 90.2343 606.626 106.507 606.626H269.46C285.733 606.626 298.926 593.435 298.926 577.161V450.571C298.926 434.297 285.733 421.105 269.46 421.105Z" fill="white"/>
</svg>
