<svg width="609" height="619" viewBox="0 0 609 619" fill="none" xmlns="http://www.w3.org/2000/svg">
<path fill-rule="evenodd" clip-rule="evenodd" d="M367.734 141.362C368.202 141.343 368.669 141.334 369.137 141.334C501.2 141.34 608.262 248.136 608.262 379.924C608.262 511.709 501.201 618.513 369.136 618.513C368.667 618.513 368.198 618.504 367.729 618.485C52.1331 605.979 52.2666 153.817 367.734 141.362ZM369.828 212.08C146.048 221.583 146.03 538.229 369.831 547.767C462.42 547.393 537.358 472.403 537.358 379.924C537.358 287.444 462.42 212.457 369.828 212.08Z" fill="white"/>
<path d="M151.83 76.7239C151.83 96.8609 143.81 116.173 129.534 130.412C115.259 144.651 95.8967 152.65 75.708 152.65C-25.2502 148.651 -25.2218 4.80577 75.708 0.820801C95.8926 0.8208 115.251 8.81695 129.526 23.0509C143.801 37.2848 151.823 56.591 151.83 76.7239V76.7239Z" fill="white"/>
<path fill-rule="evenodd" clip-rule="evenodd" d="M254.382 170.917C269.069 157.987 291.455 159.414 304.382 174.103C325.98 198.646 357.01 241.887 358.224 298.629L358.224 298.652C358.716 322.348 353.803 340.897 348.136 356.568C346.162 362.027 343.914 367.599 341.971 372.412C341.337 373.982 340.736 375.472 340.187 376.85C337.771 382.923 335.828 388.152 334.311 393.448L334.308 393.461C326.954 419.099 323.598 467.476 374.754 550.308C385.037 566.957 379.878 588.791 363.231 599.075C346.585 609.359 324.756 604.199 314.473 587.55C255.244 491.647 252.196 422.759 266.198 373.931C266.198 373.93 266.198 373.928 266.199 373.927C266.199 373.924 266.2 373.921 266.201 373.918C268.699 365.202 271.674 357.386 274.354 350.649C275.187 348.555 275.962 346.635 276.694 344.822C278.48 340.396 280.009 336.607 281.506 332.468C285.292 321.996 287.639 312.414 287.386 300.134C286.706 268.534 269.019 241.177 251.196 220.925C238.269 206.236 239.695 183.846 254.382 170.917Z" fill="white"/>
<path fill-rule="evenodd" clip-rule="evenodd" d="M454.528 180.498C466.283 170.869 482.894 169.781 495.813 177.795C561.281 218.402 627.061 314.247 603.298 426.383C599.737 443.184 584.568 455.005 567.341 454.402C474.702 451.16 397.711 386.086 393.429 305.95L428.855 304.071L393.428 305.943C391.449 268.761 406.14 238.292 420.368 217.773C434.662 197.158 450.24 184.011 454.528 180.498ZM464.282 302.2C464.282 302.197 464.282 302.195 464.282 302.193C463.426 286.075 469.722 270.96 478.748 257.944C479.432 256.957 480.122 255.996 480.814 255.064C511.394 283.31 536.838 328.029 537.223 378.719C492.25 365.859 465.837 331.228 464.282 302.2Z" fill="white"/>
</svg>
