<svg width="700" height="700" viewBox="0 0 700 700" fill="none" xmlns="http://www.w3.org/2000/svg">
<path d="M589.2 230.25L350 379.312L110.8 230.25V170.625L350 319.687L589.2 170.625M589.2 111H110.8C77.611 111 51 137.533 51 170.625V528.375C51 544.189 57.3003 559.354 68.515 570.536C79.7297 581.718 94.9401 588 110.8 588H589.2C605.06 588 620.27 581.718 631.485 570.536C642.7 559.354 649 544.189 649 528.375V170.625C649 154.811 642.7 139.646 631.485 128.464C620.27 117.282 605.06 111 589.2 111V111Z" fill="white"/>
</svg>
