<svg width="701" height="701" viewBox="0 0 701 701" fill="none" xmlns="http://www.w3.org/2000/svg">
<path d="M258 630.893C309.246 630.893 350.838 589.039 350.838 537.473V444.052H258C206.813 444.052 165.221 485.877 165.221 537.473C165.221 589.068 206.813 630.923 258 630.923V630.893Z" fill="white"/>
<path d="M165.221 350.601C165.221 299.035 206.813 257.181 258 257.181H350.838V444.052H258C206.813 444.052 165.221 402.197 165.221 350.601Z" fill="white"/>
<path d="M165.221 163.76C165.221 112.193 206.813 70.3096 258 70.3096H350.838V257.18H258C206.813 257.18 165.221 215.326 165.221 163.76V163.76Z" fill="white"/>
<path d="M350.809 70.3096H443.617C494.834 70.3096 536.425 112.193 536.425 163.76C536.425 215.326 494.834 257.18 443.617 257.18H350.809V70.3096Z" fill="white"/>
<path d="M536.425 350.601C536.425 402.197 494.834 444.052 443.617 444.052C392.4 444.052 350.809 402.197 350.809 350.601C350.809 299.006 392.4 257.181 443.617 257.181C494.834 257.181 536.425 299.035 536.425 350.601Z" fill="white"/>
</svg>
