<svg width="701" height="701" viewBox="0 0 701 701" fill="none" xmlns="http://www.w3.org/2000/svg">
<path d="M76.3186 309.32L244.902 140.445L294.194 190.028C287.194 214.82 298.569 241.945 321.319 255.07V416.653C303.819 426.57 292.152 445.528 292.152 467.111C292.152 482.582 298.298 497.419 309.237 508.359C320.177 519.299 335.014 525.445 350.485 525.445C365.956 525.445 380.794 519.299 391.733 508.359C402.673 497.419 408.819 482.582 408.819 467.111C408.819 445.528 397.152 426.57 379.652 416.653V274.903L440.027 335.861C437.985 340.236 437.985 345.195 437.985 350.445C437.985 365.915 444.131 380.753 455.071 391.692C466.01 402.632 480.848 408.778 496.319 408.778C511.79 408.778 526.627 402.632 537.567 391.692C548.506 380.753 554.652 365.915 554.652 350.445C554.652 334.974 548.506 320.136 537.567 309.197C526.627 298.257 511.79 292.111 496.319 292.111C491.069 292.111 486.11 292.111 481.735 294.153L406.777 219.195C410.398 205.686 408.994 191.321 402.826 178.769C396.657 166.217 386.143 156.33 373.235 150.945C360.694 146.278 347.569 145.111 335.902 148.32L286.319 99.0278L309.36 76.2778C332.11 53.2362 368.86 53.2362 391.61 76.2778L624.652 309.32C647.694 332.07 647.694 368.82 624.652 391.57L391.61 624.611C368.86 647.653 332.11 647.653 309.36 624.611L76.3186 391.57C53.2769 368.82 53.2769 332.07 76.3186 309.32Z" fill="white"/>
</svg>
