<svg width="701" height="701" viewBox="0 0 701 701" fill="none" xmlns="http://www.w3.org/2000/svg">
<path fill-rule="evenodd" clip-rule="evenodd" d="M350.522 31.002C174.54 31.002 32.002 173.704 32.002 349.888C32.002 490.996 123.178 610.179 249.79 652.432C265.716 655.222 271.688 645.656 271.688 637.285C271.688 629.711 271.29 604.599 271.29 577.892C191.262 592.641 170.558 558.36 164.188 540.423C160.604 531.255 145.077 502.954 131.539 495.38C120.391 489.401 104.465 474.653 131.141 474.254C156.225 473.855 174.141 497.373 180.114 506.94C208.781 555.171 254.568 541.619 272.883 533.248C275.67 512.52 284.031 498.569 293.188 490.597C222.318 482.625 148.262 455.121 148.262 333.147C148.262 298.468 160.604 269.768 180.91 247.446C177.725 239.474 166.577 206.788 184.095 162.941C184.095 162.941 210.771 154.57 271.688 195.627C297.17 188.452 324.244 184.865 351.318 184.865C378.392 184.865 405.467 188.452 430.948 195.627C491.865 154.172 518.541 162.941 518.541 162.941C536.06 206.788 524.912 239.474 521.726 247.446C542.032 269.768 554.375 298.069 554.375 333.147C554.375 455.519 479.921 482.625 409.05 490.597C420.596 500.562 430.55 519.695 430.55 549.591C430.55 592.242 430.152 626.522 430.152 637.285C430.152 645.656 436.124 655.621 452.05 652.432C577.866 610.179 669.042 490.597 669.042 349.888C669.042 173.704 526.504 31.002 350.522 31.002Z" fill="white"/>
</svg>
