<svg width="975" height="975" viewBox="0 0 975 975" fill="none" xmlns="http://www.w3.org/2000/svg">
<path fill-rule="evenodd" clip-rule="evenodd" d="M487.5 0C218.156 0 0 223.674 0 499.831C0 721.006 139.547 907.818 333.328 974.045C357.703 978.419 366.844 963.424 366.844 950.303C366.844 938.432 366.234 899.071 366.234 857.21C243.75 880.327 212.062 826.595 202.312 798.48C196.828 784.109 173.063 739.749 152.344 727.878C135.281 718.507 110.906 695.39 151.734 694.765C190.125 694.14 217.547 731.002 226.687 745.997C270.563 821.597 340.641 800.354 368.672 787.233C372.938 754.744 385.734 732.877 399.75 720.381C291.281 707.885 177.938 664.775 177.938 473.59C177.938 419.233 196.828 374.248 227.906 339.26C223.031 326.764 205.969 275.532 232.781 206.805C232.781 206.805 273.609 193.684 366.844 258.038C405.844 246.791 447.281 241.168 488.719 241.168C530.156 241.168 571.594 246.791 610.594 258.038C703.828 193.06 744.656 206.805 744.656 206.805C771.469 275.532 754.406 326.764 749.531 339.26C780.609 374.248 799.5 418.608 799.5 473.59C799.5 665.4 685.547 707.885 577.078 720.381C594.75 736.001 609.984 765.991 609.984 812.85C609.984 879.702 609.375 933.434 609.375 950.303C609.375 963.424 618.516 979.044 642.891 974.045C835.453 907.818 975 720.381 975 499.831C975 223.674 756.844 0 487.5 0Z" fill="white"/>
</svg>
