<svg width="700" height="700" viewBox="0 0 700 700" fill="none" xmlns="http://www.w3.org/2000/svg">
<path d="M600.506 135.972C586.089 121.397 568.972 109.836 550.133 101.948C531.294 94.06 511.101 90 490.709 90C470.316 90 450.123 94.06 431.284 101.948C412.445 109.836 395.328 121.397 380.911 135.972L350.992 166.205L321.074 135.972C291.954 106.546 252.458 90.0153 211.276 90.0153C170.095 90.0153 130.599 106.546 101.479 135.972C72.3594 165.397 56 205.307 56 246.921C56 288.535 72.3594 328.444 101.479 357.869L131.398 388.102L350.992 610L570.587 388.102L600.506 357.869C614.929 343.302 626.37 326.006 634.176 306.969C641.982 287.932 646 267.527 646 246.921C646 226.314 641.982 205.91 634.176 186.873C626.37 167.836 614.929 150.539 600.506 135.972Z" fill="white"/>
</svg>
