<svg width="701" height="701" viewBox="0 0 701 701" fill="none" xmlns="http://www.w3.org/2000/svg">
<path fill-rule="evenodd" clip-rule="evenodd" d="M542.821 53.2031H158.681C100.441 53.2031 53.3527 101.499 53.3527 161.232V539.971C53.3527 599.705 100.441 648 158.681 648H542.821C601.061 648 648.15 599.705 648.15 539.971V161.232C648.15 101.499 601.061 53.2031 542.821 53.2031ZM248.644 409.064H340.837L361.159 469.56C361.655 471.34 363.39 472.611 365.125 472.357H416.922C419.4 472.357 420.144 471.086 419.4 468.29L328.941 206.477C328.693 205.206 327.702 204.444 325.72 204.444H261.531C260.292 204.698 259.301 205.969 259.548 207.24C259.548 212.832 259.053 218.424 258.061 223.762C257.359 225.923 256.781 227.956 256.239 229.862C256.016 230.647 255.8 231.409 255.583 232.15L175.781 467.781C175.038 470.831 175.781 472.357 178.507 472.357H225.1C227.33 472.611 229.313 471.086 229.809 468.798L248.644 409.064ZM325.967 357.464H263.018C266.735 346.788 270.453 334.842 273.923 321.878C276.378 314.01 278.738 306.141 281.061 298.393C282.491 293.627 283.907 288.906 285.323 284.258C288.793 273.328 291.519 262.398 293.749 251.468H294.245C295.212 254.869 296.179 258.428 297.189 262.145C297.991 265.095 298.82 268.145 299.697 271.295C301.68 278.666 303.91 286.038 306.389 293.917C307.628 297.857 308.805 301.734 309.982 305.61C311.159 309.486 312.337 313.363 313.576 317.303C315.806 324.928 318.037 332.3 320.267 339.163C322.498 345.772 324.48 352.126 325.967 357.464ZM452.61 240.03C458.558 245.876 466.488 249.181 474.667 248.926C483.093 249.435 491.519 246.13 497.219 240.03C503.167 233.675 506.141 225.287 505.893 216.645C506.141 208.257 503.167 200.123 497.715 194.022C492.263 188.176 484.828 185.126 475.162 185.126C466.984 185.126 459.053 188.176 453.105 194.022C447.157 199.868 443.935 208.002 444.183 216.645C443.935 225.287 446.909 233.675 452.61 240.03ZM446.909 273.837V469.56C446.909 472.102 448.149 473.627 450.627 473.627H499.202C501.432 473.627 502.424 472.357 502.424 469.56V273.837C502.424 271.549 501.432 270.278 499.202 270.278H450.131C447.901 270.278 446.909 271.295 446.909 273.837Z" fill="white"/>
</svg>
