<svg width="700" height="701" viewBox="0 0 700 701" fill="none" xmlns="http://www.w3.org/2000/svg">
<path fill-rule="evenodd" clip-rule="evenodd" d="M223.295 126.729C167.222 126.729 121.765 171.258 121.765 226.187V474.833C121.765 529.762 167.222 574.291 223.295 574.291H477.121C533.195 574.291 578.651 529.762 578.651 474.833V226.187C578.651 171.258 533.195 126.729 477.121 126.729H223.295ZM71 226.187C71 143.793 139.185 77 223.295 77H477.121C561.232 77 629.417 143.793 629.417 226.187V474.833C629.417 557.227 561.232 624.02 477.121 624.02H223.295C139.185 624.02 71 557.227 71 474.833V226.187Z" fill="white"/>
<path fill-rule="evenodd" clip-rule="evenodd" d="M362.476 275.647C346.633 273.346 330.452 275.997 316.235 283.223C302.018 290.449 290.49 301.883 283.289 315.898C276.088 329.912 273.581 345.794 276.126 361.285C278.671 376.775 286.137 391.086 297.462 402.18C308.787 413.274 323.396 420.588 339.209 423.081C355.022 425.573 371.235 423.118 385.542 416.064C399.848 409.01 411.52 397.717 418.897 383.79C426.274 369.863 428.98 354.013 426.631 338.493C424.234 322.662 416.704 308.005 405.151 296.689C393.599 285.372 378.637 277.995 362.476 275.647ZM292.854 239.082C316.549 227.039 343.517 222.62 369.923 226.456C396.857 230.369 421.793 242.664 441.048 261.525C460.302 280.386 472.853 304.813 476.847 331.198C480.762 357.065 476.252 383.483 463.957 406.694C451.663 429.905 432.21 448.727 408.365 460.484C384.521 472.24 357.499 476.333 331.144 472.178C304.789 468.024 280.441 455.834 261.566 437.344C242.69 418.853 230.246 395.003 226.006 369.185C221.765 343.368 225.942 316.898 237.944 293.54C249.945 270.182 269.16 251.126 292.854 239.082Z" fill="white"/>
<path fill-rule="evenodd" clip-rule="evenodd" d="M464.43 213.755C464.43 200.023 475.794 188.891 489.812 188.891H490.066C504.085 188.891 515.449 200.023 515.449 213.755C515.449 227.488 504.085 238.62 490.066 238.62H489.812C475.794 238.62 464.43 227.488 464.43 213.755Z" fill="white"/>
</svg>
