<svg width="701" height="701" viewBox="0 0 701 701" fill="none" xmlns="http://www.w3.org/2000/svg">
<path d="M66 66H636V636H66V66ZM215.783 542.267C228.45 569.183 253.467 591.35 296.217 591.35C343.717 591.35 376.333 566.017 376.333 510.6V327.567H322.5V509.333C322.5 536.567 311.417 543.533 294 543.533C275.633 543.533 268.033 530.867 259.483 515.983L215.783 542.267M405.15 536.567C420.983 567.6 452.967 591.35 503 591.35C553.667 591.35 591.667 565.067 591.667 516.617C591.667 471.967 566.017 452.017 520.417 432.383L507.117 426.683C484 416.867 474.183 410.217 474.183 394.383C474.183 381.4 484 371.267 499.833 371.267C515.033 371.267 525.167 377.917 534.35 394.383L575.833 366.833C558.417 336.433 533.717 324.717 499.833 324.717C452.017 324.717 421.3 355.117 421.3 395.333C421.3 439.033 446.95 459.617 485.583 476.083L498.883 481.783C523.583 492.55 538.15 499.2 538.15 517.567C538.15 532.767 523.9 543.85 501.733 543.85C475.45 543.85 460.25 530.233 448.85 511.233L405.15 536.567Z" fill="white"/>
</svg>
