<svg width="607" height="558" viewBox="0 0 607 558" fill="none" xmlns="http://www.w3.org/2000/svg">
<path fill-rule="evenodd" clip-rule="evenodd" d="M178.852 321.762C153.153 319.66 125.475 310.025 94.1979 291.273C77.621 281.334 72.2397 259.839 82.1784 243.262C92.117 226.685 113.612 221.304 130.189 231.243C155.076 246.164 172.426 251.01 184.559 252.002C196.217 252.956 205.692 250.585 215.719 246.239C221.066 243.922 226.338 241.151 232.643 237.765C233.135 237.5 233.637 237.23 234.149 236.955C239.763 233.934 246.487 230.316 253.404 227.191C269.284 220.018 289.37 213.901 313.819 217.989C313.823 217.989 313.827 217.99 313.83 217.99C321.749 219.311 362.841 226.651 384.197 264.539C384.512 265.098 384.811 265.664 385.094 266.239C406.752 310.134 393.922 354.909 362.416 380.775C331.578 406.093 285.626 411.307 244.864 387.014C228.261 377.12 222.823 355.639 232.718 339.036C242.613 322.433 264.093 316.995 280.697 326.889C296.583 336.357 310.389 332.929 318.003 326.679C324.781 321.113 329.051 311.719 322.803 298.206C320.887 295.192 317.816 292.649 313.482 290.553C308.749 288.264 304.173 287.339 302.312 287.029L302.285 287.024C296.589 286.07 291.162 286.938 282.219 290.978C277.608 293.06 272.947 295.565 266.805 298.865C266.463 299.05 266.115 299.236 265.763 299.425C259.506 302.786 251.897 306.844 243.55 310.461C226.19 317.984 205.026 323.903 178.852 321.762Z" fill="white"/>
<path fill-rule="evenodd" clip-rule="evenodd" d="M198.452 402.556C264.956 465.298 369.75 462.51 432.789 396.211L432.795 396.205C495.867 329.904 493.4 225.121 427.41 161.844C260.846 16.3779 44.8405 243.414 198.452 402.556ZM148.715 451.835C-68.5414 228.103 239.965 -96.0433 474.147 109.711C474.493 110.015 474.833 110.326 475.167 110.644C569.649 200.513 573.407 349.965 483.526 444.454C393.672 538.953 244.191 542.682 149.703 452.813C149.367 452.494 149.038 452.168 148.715 451.835Z" fill="white"/>
<path fill-rule="evenodd" clip-rule="evenodd" d="M513.776 166.669C529.648 177.686 533.59 199.48 522.581 215.358C521.402 217.059 520.151 218.771 518.834 220.487C501.082 243.657 472.731 266.176 446.886 278.249C444.786 279.23 442.703 280.142 440.644 280.979C422.746 288.258 402.336 279.657 395.048 261.763C387.759 243.87 396.351 223.455 414.24 216.158C415.639 215.587 417.066 214.947 418.514 214.246C426.004 210.606 434.346 205.135 442.138 198.9C450.087 192.524 457.327 185.458 462.467 178.966C463.402 177.782 464.277 176.607 465.082 175.448C476.107 159.582 497.904 155.652 513.776 166.669Z" fill="white"/>
<path d="M606.403 499.872C606.403 515.156 600.332 529.814 589.524 540.621C578.717 551.428 564.059 557.5 548.776 557.5C472.334 554.462 472.358 445.269 548.776 442.245C556.344 442.245 563.837 443.735 570.829 446.63C577.821 449.526 584.174 453.771 589.526 459.122C594.877 464.474 599.122 470.827 602.018 477.819C604.913 484.811 606.404 492.305 606.403 499.872Z" fill="white"/>
<path d="M82.8575 57.2849C82.8575 68.299 78.4822 78.8621 70.694 86.6503C62.9058 94.4385 52.3427 98.8139 41.3285 98.8139C-13.7324 96.6254 -13.7324 17.935 41.3285 15.7559C52.3427 15.7559 62.9058 20.1312 70.694 27.9194C78.4822 35.7076 82.8575 46.2707 82.8575 57.2849V57.2849Z" fill="white"/>
<path d="M606.404 45.8532C606.404 57.9192 601.61 69.4912 593.078 78.0232C584.546 86.5552 572.974 91.3484 560.908 91.3484C500.561 88.95 500.579 2.74699 560.908 0.35791C572.974 0.35791 584.546 5.15114 593.078 13.6832C601.61 22.2152 606.404 33.7871 606.404 45.8532V45.8532Z" fill="white"/>
</svg>
