<svg width="700" height="700" viewBox="0 0 700 700" fill="none" xmlns="http://www.w3.org/2000/svg">
<path d="M144.541 70C103.498 70 70.0813 103.403 70.0513 144.47C70.0513 185.537 103.468 218.947 144.541 218.947C185.599 218.947 218.998 185.537 218.998 144.47C218.998 103.408 185.597 70 144.541 70Z" fill="white"/>
<path d="M200.398 248.557H88.6512C83.3356 248.557 79.0239 252.884 79.0239 258.225V619.334C79.0239 624.673 83.3356 629 88.6512 629H200.396C205.714 629 210.026 624.671 210.026 619.334V258.225C210.028 252.881 205.716 248.557 200.398 248.557Z" fill="white"/>
<path d="M487.019 244.968C446.009 244.968 409.97 257.448 387.979 277.799V258.863C387.979 253.531 383.655 249.212 378.322 249.212H270.827C265.494 249.212 261.17 253.531 261.17 258.863V619.351C261.17 624.681 265.494 629 270.827 629H382.782C388.114 629 392.438 624.679 392.438 619.351V441C392.438 389.827 401.856 358.11 448.857 358.11C495.163 358.165 498.628 392.177 498.628 444.057V619.351C498.628 624.681 502.952 629 508.287 629H620.294C625.625 629 629.948 624.679 629.948 619.351V421.608C629.946 339.367 613.701 244.968 487.019 244.968Z" fill="white"/>
</svg>
