<svg width="975" height="975" viewBox="0 0 975 975" fill="none" xmlns="http://www.w3.org/2000/svg">
<path d="M129.953 0.685303C58.3504 0.685303 0.0524262 58.972 0 130.631C0 202.29 58.2979 260.588 129.953 260.588C201.582 260.588 259.85 202.29 259.85 130.631C259.85 58.9795 201.579 0.685303 129.953 0.685303Z" fill="white"/>
<path d="M227.485 312.801H32.4069C23.1275 312.801 15.6006 320.324 15.6006 329.611V957.508C15.6006 966.792 23.1275 974.315 32.4069 974.315H227.481C236.764 974.315 244.291 966.788 244.291 957.508V329.611C244.295 320.32 236.768 312.801 227.485 312.801Z" fill="white"/>
<path d="M726.193 305.409C654.803 305.409 592.068 327.147 553.786 362.595V329.611C553.786 320.324 546.259 312.801 536.976 312.801H349.848C340.565 312.801 333.038 320.324 333.038 329.611V957.508C333.038 966.792 340.565 974.315 349.848 974.315H544.738C554.022 974.315 561.548 966.788 561.548 957.508V646.857C561.548 557.725 577.943 502.479 659.761 502.479C740.37 502.576 746.403 561.818 746.403 652.182V957.508C746.403 966.792 753.93 974.315 763.217 974.315H958.198C967.477 974.315 975.004 966.788 975.004 957.508V613.079C975 469.832 946.72 305.409 726.193 305.409Z" fill="white"/>
</svg>
