<svg width="625" height="607" viewBox="0 0 625 607" fill="none" xmlns="http://www.w3.org/2000/svg">
<path d="M137.843 105.142C166.66 105.142 190.02 81.7812 190.02 52.9646C190.02 24.148 166.66 0.787598 137.843 0.787598C109.027 0.787598 85.6661 24.148 85.6661 52.9646C85.6661 81.7812 109.027 105.142 137.843 105.142Z" fill="white"/>
<path d="M557.148 262.362C594.369 262.362 624.543 232.189 624.543 194.967C624.543 157.746 594.369 127.573 557.148 127.573C519.927 127.573 489.753 157.746 489.753 194.967C489.753 232.189 519.927 262.362 557.148 262.362Z" fill="white"/>
<path fill-rule="evenodd" clip-rule="evenodd" d="M234.373 207.87C143.377 207.87 69.61 281.637 69.61 372.633C69.61 463.629 143.377 537.396 234.373 537.396C325.369 537.396 399.135 463.629 399.135 372.633C399.135 281.637 325.369 207.87 234.373 207.87ZM0.164124 372.633C0.164124 243.283 105.023 138.425 234.373 138.425C363.723 138.425 468.581 243.283 468.581 372.633C468.581 501.983 363.723 606.842 234.373 606.842C105.023 606.842 0.164124 501.983 0.164124 372.633Z" fill="white"/>
<path fill-rule="evenodd" clip-rule="evenodd" d="M36.1952 280.648C54.9462 276.629 73.4051 288.571 77.4242 307.322C87.7926 355.696 107.381 377.748 120.988 388.871C120.99 388.872 120.992 388.874 120.994 388.876C120.996 388.877 120.998 388.879 121 388.88C136.965 401.91 152.499 406.423 175.408 412.661C175.687 412.737 175.967 412.813 176.248 412.89C198.958 419.071 227.918 426.954 257.702 450.347L257.715 450.357C298.011 482.037 317.037 523.806 326.564 552.042C332.694 570.212 322.934 589.912 304.763 596.043C286.592 602.173 266.892 592.413 260.762 574.242C253.317 552.175 240.068 524.827 214.806 504.961C196.712 490.749 179.722 485.81 157.163 479.667C156.616 479.518 156.065 479.369 155.511 479.218C133.276 473.173 105.034 465.495 77.0701 442.666L77.0583 442.656C51.1745 421.506 23.1774 385.593 9.52054 321.877C5.50146 303.126 17.4441 284.667 36.1952 280.648Z" fill="white"/>
<path fill-rule="evenodd" clip-rule="evenodd" d="M136.763 160.912C155.572 157.17 173.852 169.384 177.594 188.192C184.491 222.861 197.698 250.951 220.141 267.378C233.644 277.258 246.493 280.308 267.298 283.665C268.992 283.938 270.736 284.212 272.529 284.495C292.754 287.679 319.141 291.833 349.232 306.027L349.237 306.029C386.708 323.7 424.31 354.021 456.618 404.606C466.94 420.768 462.206 442.237 446.045 452.56C429.883 462.882 408.413 458.148 398.091 441.986C372.557 402.007 344.798 380.716 319.612 368.84L334.416 337.446L319.607 368.837C298.787 359.015 281.368 356.236 260.93 352.976C259.385 352.729 257.822 352.48 256.239 352.224C233.723 348.592 206.754 343.634 179.132 323.422C136.344 292.107 117.854 243.824 109.483 201.742C105.741 182.934 117.955 164.654 136.763 160.912Z" fill="white"/>
</svg>
