<svg width="701" height="701" viewBox="0 0 701 701" fill="none" xmlns="http://www.w3.org/2000/svg">
<path d="M335.847 151.01C309.989 112.298 304.399 60.5622 303.179 39.3018C237.496 53.4806 172.24 78.9141 176.008 97.6453C176.483 100.001 179.46 102.83 184.401 105.58L176.673 119.38C167.236 114.1 161.931 108.015 160.49 100.743C156.23 79.5463 180.284 60.3725 233.996 42.1154C270.67 29.6437 307.661 22.1986 309.228 21.8983L318.682 20.0015V29.6595C318.682 30.3234 319.094 97.4398 349.022 142.253L335.847 151.01Z" fill="white"/>
<path d="M362.035 651.041H358.073C228.754 651.041 84.8328 610.481 67.8313 542.603C57.4599 501.145 91.384 455.336 165.926 410.174L174.134 423.636C107.06 464.29 74.7456 505.165 83.1595 538.789C97.9194 597.713 234.31 634.442 353.937 635.262C368.16 614.028 444.58 489.291 400.963 321.992L416.228 318.02C465.938 508.633 365.429 646.485 364.419 647.857L362.035 651.041Z" fill="white"/>
<path d="M128.416 593.037C119.914 593.037 115.703 592.107 115.009 591.934C112.233 591.257 110.056 589.129 109.299 586.388C108.526 583.646 109.315 580.699 111.334 578.698C112.469 577.564 224.856 465.124 240.03 374.207L255.582 376.791C242.538 455.008 165.437 544.175 134.82 577.012C165.405 575.263 242.632 560.956 390.887 478.06C275.189 465.391 256.892 372.868 256.702 371.875L272.208 369.023C272.949 372.899 291.546 463.737 418.018 463.737C418.065 463.737 418.097 463.737 418.144 463.737C421.725 463.737 424.832 466.132 425.747 469.567C426.693 473.002 425.179 476.642 422.103 478.438C244.888 580.999 158.954 593.021 128.416 593.037Z" fill="white"/>
<path d="M200.14 631.039C196.874 631.039 193.907 629.017 192.755 625.905C191.508 622.572 192.644 618.796 195.548 616.711C196.084 616.316 224.159 595.574 254.033 549.918C242.545 544.831 230.914 538.892 219.378 531.956C205.364 523.536 194.775 514.5 186.868 505.243C146.31 515.953 108.877 520.187 76.0047 517.391L77.3304 501.656C106.936 504.168 140.597 500.661 177.084 491.546C152.26 449.082 175.048 406.934 175.364 406.365L189.156 414.058C188.099 415.986 169.193 451.499 193.086 487.249C227.821 477.265 264.875 462.494 303.224 443.3C312.045 414.311 318.942 381.341 322.556 344.154C322.808 341.61 324.26 339.351 326.469 338.071C328.679 336.792 331.377 336.681 333.697 337.74C334.202 337.977 385.207 361.294 422.135 376.507C424.818 377.613 426.68 380.109 426.98 383C427.296 385.891 425.986 388.703 423.572 390.346C387.448 414.99 351.562 436.365 316.606 454.2C305.528 489.35 291.814 518.607 277.8 542.525C336.222 564.373 386.927 564.705 387.574 564.705C391.173 564.705 394.313 567.138 395.213 570.629C396.112 574.12 394.55 577.77 391.409 579.523C319.762 619.365 205.711 630.581 200.898 631.039C200.645 631.024 200.393 631.039 200.14 631.039ZM269.341 556.269C252.929 581.766 236.8 600.076 224.743 612.035C256.274 607.39 311.556 597.217 357.432 578.244C335.465 575.542 303.665 569.539 269.341 556.269ZM203.975 500.408C210.177 506.601 217.91 512.652 227.489 518.418C239.104 525.4 250.893 531.325 262.524 536.348C274.423 516.38 286.211 492.415 296.327 464.184C264.433 479.382 233.47 491.514 203.975 500.408ZM337.09 356.618C333.855 384.548 328.868 410.03 322.682 433.237C348.879 419.256 375.612 403.284 402.567 385.433C378.121 375.07 351.246 363.016 337.09 356.618Z" fill="white"/>
<path d="M253.986 140.009C252.141 140.009 250.313 139.346 248.863 138.116C223.484 116.383 193.612 72.1614 192.351 70.2846C190.317 67.2723 190.633 63.2507 193.076 60.5696C195.504 57.8728 199.507 57.2419 202.66 58.961C202.834 59.0083 217.446 65.0328 316.425 81.5294C319.278 82.0025 321.627 83.9897 322.572 86.7023C323.534 89.4149 322.919 92.443 320.996 94.5878C293.284 125.389 258.273 138.952 256.792 139.504C255.877 139.835 254.916 140.009 253.986 140.009ZM218.092 79.2268C228.039 92.6165 242.368 110.706 255.483 122.897C263.538 119.222 281.603 109.996 298.738 94.5405C258.021 87.5855 233.178 82.6334 218.092 79.2268Z" fill="white"/>
<path d="M316.399 358.023C315.327 358.023 314.238 357.802 313.229 357.361C310.09 355.975 308.197 352.73 308.56 349.327C313.166 306.022 246.633 288.646 245.954 288.489C243.21 287.796 241.033 285.669 240.292 282.944C239.55 280.218 240.323 277.288 242.326 275.288C245.591 272.027 323.387 194.979 420.994 152.666C423.723 151.485 426.814 151.926 429.117 153.769C431.404 155.628 432.461 158.605 431.862 161.472C413.154 251.957 326.021 351.202 322.33 355.376C320.768 357.093 318.592 358.023 316.399 358.023ZM262.958 277.446C281.634 284.456 314.349 300.682 322.63 330.313C345.486 301.832 394.273 236.22 412.492 173.822C343.293 207.061 285.025 257.187 262.958 277.446Z" fill="white"/>
<path d="M177.516 420.026L170.011 406.157C199.763 390.161 233.844 360.721 261.763 326.505C238 342.738 224.395 353.849 223.969 354.212L213.872 342.077C214.489 341.572 241.744 319.272 287.044 291.329C299.479 271.376 309.038 250.857 313.952 231.188C314.789 227.847 315.516 224.616 316.101 221.495C285.685 210.668 257.624 204.254 238.347 201.496C235.424 201.086 232.991 199.084 232.011 196.326C231.032 193.568 231.679 190.479 233.654 188.336C234.997 186.886 267.088 152.592 307.189 133.759C310.302 132.293 314.031 133.018 316.369 135.555C317.428 136.706 339.122 161.008 333.607 211.283C351.857 218.375 370.659 226.996 388.766 237.256C432.36 217.713 481.862 200.125 534.588 189.502C537.306 188.966 540.323 189.944 542.188 192.15C544.036 194.356 544.542 197.398 543.499 200.077C522.959 252.59 467.879 308.681 465.54 311.045C463.945 312.652 461.764 313.456 459.489 313.377C457.229 313.251 455.144 312.179 453.722 310.414C436.025 288.224 412.894 269.848 387.945 254.891C353.579 270.714 323.148 287.641 298.136 302.944C266.219 352.636 218.044 398.262 177.516 420.026ZM405.246 247.232C425.629 260.344 444.605 275.758 460.295 293.693C473.377 279.54 504.773 243.765 522.58 208.241C480.709 217.855 441.081 231.771 405.246 247.232ZM331.095 227.153C330.574 229.722 329.973 232.354 329.31 235.033C325.992 248.256 320.714 261.842 313.952 275.395C331.269 265.529 350.435 255.348 371.117 245.482C357.877 238.485 344.367 232.401 331.095 227.153ZM256.028 188.541C273.582 191.977 295.213 197.587 318.297 205.656C320.699 176.61 312.83 158.817 308.074 150.937C286.333 162.253 267.293 178.171 256.028 188.541Z" fill="white"/>
<path d="M256.016 264.803C256.016 334.009 198.662 388.994 157.335 429.127C150.421 435.921 127.008 437.027 127.008 437.027C132.822 431.023 139.422 424.703 146.493 417.909C185.777 379.672 240.303 327.372 240.303 264.803C240.303 190.699 210.604 161.468 187.191 138.083C176.82 127.497 168.02 117.385 162.678 105.06L167.549 103.006C172.891 105.376 179.02 108.062 183.734 110.117C187.505 115.647 192.533 121.019 198.347 126.865C222.389 151.04 256.016 184.221 256.016 264.803Z" fill="white"/>
<path d="M649.041 285.412C649.041 285.412 639.494 286.772 636.812 287.088C498.586 302.426 355.942 342.273 274.364 375.005C244.857 386.865 214.245 401.254 186.316 417.383C186.158 417.541 186.001 417.541 185.685 417.699C169.275 427.186 129.353 446.794 97.006 464.029C144.344 413.588 233.023 374.689 268.368 360.458C348.368 328.359 485.805 289.618 621.033 273.015C605.096 254.356 566.121 214.825 489.434 185.414C444.621 168.021 376.455 158.217 316.337 149.52C220.715 135.763 166.277 126.592 161.07 100.502C159.965 95.2835 160.754 90.0653 163.121 85.0054C168.328 93.5441 175.744 99.5528 180.636 103.032C183.003 104.613 184.738 105.562 185.369 105.878L185.527 106.036C207.934 117.895 268.368 126.592 318.704 133.866C379.611 142.721 448.566 152.683 495.115 170.551C603.518 212.453 640.914 272.383 642.492 274.913C643.912 277.284 649.041 285.412 649.041 285.412Z" fill="white"/>
</svg>
