<svg width="701" height="701" viewBox="0 0 701 701" fill="none" xmlns="http://www.w3.org/2000/svg">
<path fill-rule="evenodd" clip-rule="evenodd" d="M609.516 523.11C576.06 522.178 550.105 525.606 528.351 534.755C522.087 537.27 512.035 537.27 511.21 545.152C514.558 548.459 514.961 553.872 517.896 558.455C522.912 566.774 531.708 577.982 539.65 583.795L566.421 602.921C582.736 612.889 601.143 618.712 617.037 628.69C626.245 634.512 635.443 641.993 644.651 648.235C649.34 651.561 652.181 656.973 658.041 659.042V657.784C655.116 654.057 654.272 648.654 651.356 644.48L638.791 632.435C626.667 616.225 611.598 602.083 595.282 590.456C581.892 581.308 552.618 568.843 547.179 553.471L546.354 552.539C555.544 551.608 566.421 548.375 575.216 545.878C589.45 542.152 602.409 542.972 617.037 539.236L637.131 533.413V529.687C629.601 522.206 624.163 512.228 616.221 505.167C594.889 486.879 571.447 469.001 547.179 454.04C534.211 445.73 517.474 440.317 503.671 433.265C498.636 430.768 490.281 429.52 487.356 425.365C479.807 416.235 475.635 404.17 470.196 393.354L435.896 321.033C428.366 304.823 423.753 288.613 414.564 273.651C371.468 202.988 324.603 160.18 252.645 118.192C237.173 109.463 218.767 105.709 199.197 101.144L167.823 99.467C161.118 96.5604 154.433 88.6603 148.572 84.9152C124.727 69.9534 63.2246 37.5332 45.6431 80.2571C34.3441 107.274 62.3806 133.872 71.8981 147.594C79.0244 157.153 88.2137 167.959 93.249 178.766C96.0621 185.828 96.9998 193.318 99.9347 200.799C106.62 219.086 112.903 239.461 121.689 256.509C126.377 265.239 131.3 274.396 137.161 282.287C140.508 286.945 146.369 288.939 147.616 296.42C141.755 304.739 141.352 317.195 138.004 327.601C122.936 374.573 128.796 432.762 150.129 467.343C156.833 477.731 172.633 500.602 194.068 491.863C212.897 484.382 208.696 460.691 214.135 439.907C215.401 434.923 214.557 431.597 217.06 428.262V429.194L234.22 463.691C247.188 484.056 269.786 505.26 288.605 519.402C298.638 526.883 306.59 539.776 319.136 544.341V543.083H318.311C315.798 539.357 312.028 537.68 308.681 534.773C301.151 527.293 292.787 518.144 286.927 509.834C269.364 486.562 253.892 460.785 240.08 434.187C233.376 421.303 227.515 407.17 222.096 394.286C219.564 389.292 219.564 381.802 215.391 379.324C209.109 388.454 199.919 396.373 195.297 407.589C187.345 425.458 186.52 447.49 183.594 470.352C181.907 470.771 182.657 470.352 181.907 471.284C168.535 467.967 163.922 454.235 158.905 442.609C146.359 413.095 144.259 365.713 155.136 331.626C158.061 322.896 170.626 295.46 165.61 287.15C163.078 279.25 154.733 274.685 150.119 268.443C144.681 260.543 138.839 250.575 135.07 241.846C125.036 218.555 120.02 192.796 109.133 169.515C104.098 158.708 95.3214 147.482 88.2044 137.514C80.2529 126.288 71.4855 118.388 65.2031 105.094C63.1121 100.436 60.1865 93.0389 63.534 88.0454C64.3592 84.7196 66.047 83.3873 69.3758 82.642C74.8143 77.984 90.3047 83.8904 95.7433 86.3685C111.215 92.6103 124.183 98.4236 137.151 107.144C143.012 111.299 149.294 119.199 156.824 121.285H165.619C179.009 124.192 194.059 122.217 206.596 125.944C228.772 133.024 248.847 143.402 266.851 154.637C321.649 189.135 366.845 238.185 397.376 296.802C402.392 306.36 404.483 315.089 409.097 325.067C417.892 345.441 428.769 366.216 437.537 386.181C446.332 405.717 454.696 425.681 467.242 441.891C473.525 450.621 498.617 455.186 509.907 459.76C518.28 463.486 531.239 466.84 538.787 471.405C553.003 480.134 567.227 490.112 580.608 499.67C587.293 504.645 608.222 515.042 609.469 523.333L609.516 523.11ZM182.872 161.904C177.092 161.853 171.33 162.551 165.732 163.981V164.913H166.557C169.904 171.565 175.765 176.139 179.947 181.962L189.577 201.917L190.402 200.985C196.262 196.83 199.197 190.178 199.197 180.21C196.684 177.303 196.272 174.387 194.181 171.481C191.668 167.326 186.229 165.239 182.872 161.922V161.904Z" fill="white"/>
</svg>
