<svg width="727" height="687" viewBox="0 0 727 687" fill="none" xmlns="http://www.w3.org/2000/svg">
<path fill-rule="evenodd" clip-rule="evenodd" d="M350.225 194.675C257.539 194.675 182.403 268.782 182.403 360.198C182.403 451.614 257.539 525.722 350.225 525.722C442.911 525.722 518.047 451.614 518.047 360.198C518.047 268.782 442.911 194.675 350.225 194.675ZM111.667 360.198C111.667 230.251 218.473 124.909 350.225 124.909C481.977 124.909 588.783 230.251 588.783 360.198C588.783 490.145 481.977 595.488 350.225 595.488C218.473 595.488 111.667 490.145 111.667 360.198Z" fill="white"/>
<path fill-rule="evenodd" clip-rule="evenodd" d="M513.052 202.495C521.703 219.576 515.261 240.64 498.664 249.543C476.255 261.564 452.589 270.919 428.123 277.429L428.112 277.432C402.117 284.338 375.406 287.988 348.56 288.302C329.845 288.521 314.5 273.084 314.288 253.823C314.075 234.563 329.075 218.771 347.79 218.553C369.174 218.303 390.451 215.396 411.158 209.895C411.159 209.895 411.16 209.894 411.161 209.894C411.164 209.893 411.166 209.893 411.169 209.892C430.65 204.708 449.493 197.258 467.336 187.687C483.934 178.784 504.401 185.414 513.052 202.495Z" fill="white"/>
<path fill-rule="evenodd" clip-rule="evenodd" d="M139.068 406.192C151.311 390.876 173.62 388.411 188.896 400.686C209.059 416.887 234.015 425.924 259.851 426.38C279.425 426.725 295.013 442.914 294.669 462.538C294.324 482.162 278.177 497.79 258.603 497.445C217.077 496.712 176.967 482.188 144.559 456.147C129.283 443.873 126.824 421.507 139.068 406.192Z" fill="white"/>
<path fill-rule="evenodd" clip-rule="evenodd" d="M564.666 293.247C574.144 310.277 568.208 331.872 551.408 341.48C530.225 353.594 455.205 393.439 344.627 392.872L344.627 392.872C242.538 392.345 172.351 357.693 149.793 345.513C132.768 336.321 126.318 314.879 135.386 297.621C144.454 280.363 165.606 273.824 182.63 283.016C199.748 292.258 258.461 321.617 344.982 322.063L344.804 357.467L344.982 322.063C438.679 322.544 501.406 288.775 517.086 279.808C533.885 270.2 555.188 276.217 564.666 293.247Z" fill="white"/>
<path d="M463.726 412.334C457.258 398.864 414.153 408.575 384.361 424.14C356.597 438.629 322.928 467.314 327.837 481.261C332.723 495.146 375.635 494.193 408.515 477.496C441.32 460.845 470.062 425.51 463.726 412.334Z" fill="white"/>
<path d="M95.3353 137.98C107.969 137.98 118.211 126.276 118.211 111.837C118.211 97.3986 107.969 85.6938 95.3353 85.6938C82.7016 85.6938 72.46 97.3986 72.46 111.837C72.46 126.276 82.7016 137.98 95.3353 137.98Z" fill="white"/>
<path d="M464.607 53.0146C479.045 53.0146 490.75 41.3099 490.75 26.8713C490.75 12.4328 479.045 0.728027 464.607 0.728027C450.168 0.728027 438.463 12.4328 438.463 26.8713C438.463 41.3099 450.168 53.0146 464.607 53.0146Z" fill="white"/>
<path d="M497.281 686.99C526.158 686.99 549.567 663.58 549.567 634.703C549.567 605.826 526.158 582.417 497.281 582.417C468.403 582.417 444.994 605.826 444.994 634.703C444.994 663.58 468.403 686.99 497.281 686.99Z" fill="white"/>
<path d="M690.089 386.342C709.942 386.342 726.036 368.785 726.036 347.127C726.036 325.469 709.942 307.912 690.089 307.912C670.236 307.912 654.142 325.469 654.142 347.127C654.142 368.785 670.236 386.342 690.089 386.342Z" fill="white"/>
<path d="M46.3111 334.055C71.5785 334.055 92.0619 313.572 92.0619 288.304C92.0619 263.037 71.5785 242.553 46.3111 242.553C21.0436 242.553 0.560303 263.037 0.560303 288.304C0.560303 313.572 21.0436 334.055 46.3111 334.055Z" fill="white"/>
</svg>
