<svg width="701" height="701" viewBox="0 0 701 701" fill="none" xmlns="http://www.w3.org/2000/svg">
<path d="M350.162 54.5576C342.287 54.5576 334.12 56.5993 327.412 60.3909L110.412 185.808C96.4121 193.974 87.6621 209.141 87.6621 225.474V475.724C87.6621 492.058 96.4121 507.224 110.412 515.391L167.287 548.058C194.995 561.474 204.329 561.766 217.162 561.766C257.995 561.766 281.62 536.974 281.62 493.808V246.766C281.62 243.266 278.704 240.349 275.204 240.349H248.079C244.287 240.349 241.37 243.266 241.37 246.766V493.808C241.37 513.058 221.537 532.016 189.745 515.974L129.954 481.849C128.972 481.156 128.169 480.239 127.611 479.174C127.053 478.109 126.756 476.926 126.745 475.724V225.474C126.745 222.849 127.912 220.516 129.954 219.349L346.954 94.2243C348.704 93.0576 351.62 93.0576 353.37 94.2243L570.37 219.349C572.412 220.516 573.579 222.849 573.579 225.474V475.724C573.579 478.058 572.412 480.391 570.37 481.849L353.37 606.974C351.62 608.141 348.704 608.141 346.662 606.974L291.829 573.724C289.495 572.849 287.162 572.558 285.704 573.433C270.245 582.183 267.329 583.933 253.037 588.308C249.537 589.474 243.995 591.516 255.079 597.641L327.412 640.516C334.412 644.599 341.995 646.641 350.162 646.641C358.329 646.641 365.912 644.599 372.912 640.516L589.912 515.391C603.912 507.224 612.662 492.058 612.662 475.724V225.474C612.662 209.141 603.912 193.974 589.912 185.808L372.912 60.3909C366.204 56.5993 358.329 54.5576 350.162 54.5576M408.495 233.933C346.662 233.933 309.62 259.891 309.62 303.641C309.62 350.599 346.37 364.308 405.87 370.141C476.745 377.141 482.287 387.641 482.287 401.641C482.287 425.849 462.745 436.058 417.245 436.058C359.495 436.058 347.245 421.766 342.87 393.183C342.563 391.705 341.759 390.378 340.591 389.422C339.423 388.467 337.963 387.941 336.454 387.933H308.454C304.954 387.933 302.329 390.558 302.329 394.349C302.329 430.516 322.162 474.266 417.245 474.266C485.787 474.266 525.162 447.141 525.162 399.891C525.162 352.933 493.662 340.683 426.87 331.641C359.495 322.891 352.787 318.224 352.787 302.474C352.787 289.349 358.62 271.849 408.495 271.849C452.245 271.849 469.454 281.474 476.162 311.516C476.745 314.433 479.371 316.474 482.287 316.474H510.579C512.037 316.474 513.787 315.891 514.954 314.433C516.12 313.266 516.996 311.516 516.412 309.766C512.329 257.849 477.912 233.933 408.495 233.933Z" fill="white"/>
</svg>
