<svg width="701" height="701" viewBox="0 0 701 701" fill="none" xmlns="http://www.w3.org/2000/svg">
<path fill-rule="evenodd" clip-rule="evenodd" d="M415.816 56.3516L88.5868 80.507C62.1875 82.7884 53.0033 100.029 53.0033 120.691V479.21C53.0033 495.304 58.722 509.075 72.5189 527.479L149.44 627.44C162.078 643.534 173.568 646.986 197.697 645.839L577.701 622.848C609.831 620.561 619.039 605.608 619.039 580.335V176.999C619.039 163.937 613.876 160.172 598.678 149.025L491.614 73.5861C466.344 55.2227 456.012 52.9 415.816 56.3457V56.3516ZM206.29 170.397C175.26 172.483 168.222 172.956 150.599 158.635L105.796 123.02C101.242 118.41 103.531 112.659 115.004 111.512L429.578 88.5391C455.995 86.2341 469.75 95.4364 480.082 103.474L534.034 142.542C536.34 143.706 542.076 150.58 535.175 150.58L210.311 170.125L206.29 170.403V170.397ZM170.115 576.889V234.488C170.115 219.535 174.71 212.638 188.465 211.479L561.592 189.647C574.248 188.506 579.966 196.544 579.966 211.473V551.593C579.966 566.546 577.66 579.195 557.003 580.335L199.944 601.021C179.287 602.162 170.121 595.288 170.121 576.889H170.115ZM522.578 252.845C524.867 263.188 522.578 273.532 512.229 274.714L495.02 278.124V530.925C480.076 538.963 466.32 543.555 454.824 543.555C436.45 543.555 431.86 537.805 418.099 520.582L305.559 343.628V514.831L341.16 522.887C341.16 522.887 341.16 543.573 312.437 543.573L233.251 548.165C230.944 543.555 233.251 532.072 241.276 529.784L261.956 524.051V297.687L233.257 295.364C230.95 285.021 236.687 270.086 252.772 268.927L337.736 263.212L454.83 442.454V283.88L424.983 280.452C422.676 267.787 431.86 258.584 443.333 257.461L522.578 252.851V252.845Z" fill="white"/>
</svg>
