<svg width="701" height="701" viewBox="0 0 701 701" fill="none" xmlns="http://www.w3.org/2000/svg">
<path fill-rule="evenodd" clip-rule="evenodd" d="M574.028 180.378C539.815 136.78 493.233 104.145 440.172 86.6012C387.111 69.0576 329.955 67.3932 275.933 81.8184C221.911 96.2437 173.449 126.111 136.676 167.642C99.9035 209.174 76.4721 260.504 69.3453 315.141C62.2185 369.778 71.7164 425.268 96.6378 474.593C121.559 523.918 160.785 564.862 209.353 592.247C257.922 619.632 313.652 632.227 369.495 628.441C425.338 624.654 478.786 604.656 523.079 570.974C646.715 476.946 669.532 302.091 574.019 180.378H574.028ZM286.926 385.197C287.056 384.825 287.243 384.473 287.482 384.152L305.884 365.885L267.442 373.952L266.027 374.875C264.455 374.855 262.914 374.44 261.551 373.667C260.189 372.895 259.05 371.791 258.245 370.462C256.387 367.007 257.051 362.751 259.898 360.019L288.667 331.472C288.777 331.376 288.89 331.284 289.007 331.196C289.119 331.046 289.242 330.903 289.374 330.767C380.116 241.469 409.452 225.427 431.063 234.393C424.068 216.396 428.385 195.99 442.115 182.24C451.557 173.119 464.259 168.009 477.49 168.009C490.03 168.009 502.096 172.599 511.36 180.845L511.406 180.868C512.023 181.194 512.548 181.665 512.936 182.24C517.642 186.778 521.381 192.194 523.933 198.172C526.486 204.15 527.8 210.568 527.8 217.052C527.8 223.536 526.486 229.955 523.933 235.933C521.381 241.911 517.642 247.327 512.936 251.865C510.159 254.763 506.983 257.262 503.499 259.289C502.69 259.69 501.765 259.793 500.889 259.583C493.598 263.612 485.405 265.833 477.021 266.034L477.101 266.016C471.122 265.941 465.237 264.811 459.716 262.709C461.032 266.653 461.66 270.834 461.527 275.076C461.527 306.407 425.206 345.859 363.423 403.421C362.599 404.224 361.514 404.717 360.359 404.813C359.91 404.778 359.472 404.682 359.054 404.532C322.399 434.458 282.123 459.809 239.142 480.009L243.626 498.807C243.972 500.258 243.986 501.766 243.665 503.221C243.344 504.677 242.696 506.044 241.77 507.223C240.913 508.313 239.837 509.216 238.611 509.877L238.673 509.939C239.699 511.331 239.699 513.194 238.673 514.577C238.125 515.448 237.294 516.1 236.312 516.431V516.44L178.766 512.497C175.352 512.184 172.416 509.886 171.213 506.814C170.01 503.742 170.744 500.095 173.106 497.641L196.16 474.953C196.401 474.486 196.742 474.068 197.17 473.734L286.926 385.197ZM360.359 404.813L360.363 404.814H360.354L360.359 404.813Z" fill="white"/>
</svg>
