<svg width="701" height="701" viewBox="0 0 701 701" fill="none" xmlns="http://www.w3.org/2000/svg">
<path d="M287.804 58.9326C265.68 58.9326 244.463 67.7211 228.819 83.3648C213.176 99.0085 204.387 120.226 204.387 142.349V191.349H329.512C340.887 191.349 350.22 207.974 350.22 219.349H141.97C119.847 219.349 98.6295 228.138 82.9859 243.781C67.3422 259.425 58.5537 280.642 58.5537 302.766V413.045C58.5537 435.169 67.3422 456.386 82.9859 472.03C98.6295 487.673 119.847 496.462 141.97 496.462H176.387V418.295C176.349 407.354 178.47 396.514 182.631 386.395C186.791 376.276 192.908 367.078 200.63 359.328C208.353 351.578 217.53 345.429 227.634 341.234C237.738 337.038 248.571 334.878 259.512 334.878H412.637C458.72 334.878 496.054 297.808 496.054 251.724V142.349C496.054 120.226 487.265 99.0085 471.621 83.3648C455.978 67.7211 434.76 58.9326 412.637 58.9326H287.804ZM266.804 105.891C278.47 105.891 287.804 109.391 287.804 126.599C287.804 143.808 278.47 152.587 266.804 152.587C255.429 152.587 246.095 143.837 246.095 126.628C246.095 109.42 255.429 105.891 266.804 105.891V105.891Z" fill="white"/>
<path d="M524.024 204.767V282.933C524.059 293.871 521.934 304.709 517.772 314.824C513.61 324.94 507.493 334.135 499.77 341.881C492.048 349.628 482.873 355.774 472.771 359.968C462.668 364.162 451.837 366.321 440.899 366.321H287.803C276.863 366.282 266.022 368.404 255.903 372.564C245.784 376.725 236.586 382.841 228.837 390.564C221.087 398.287 214.938 407.463 210.742 417.568C206.546 427.672 204.387 438.505 204.387 449.446V558.821C204.387 580.944 213.175 602.162 228.819 617.805C244.463 633.449 265.68 642.237 287.803 642.237H412.637C434.755 642.237 455.968 633.453 471.611 617.816C487.254 602.178 496.046 580.968 496.053 558.85V509.85H370.899C359.524 509.85 350.22 493.225 350.22 481.85H558.47C580.593 481.85 601.811 473.061 617.454 457.418C633.098 441.774 641.887 420.557 641.887 398.433V288.183C641.887 266.06 633.098 244.842 617.454 229.199C601.811 213.555 580.593 204.767 558.47 204.767H524.024ZM242.887 336.396L242.77 336.512C243.12 336.454 243.499 336.483 243.878 336.396H242.887ZM433.637 548.612C445.012 548.612 454.345 557.362 454.345 574.571C454.345 577.29 453.809 579.983 452.769 582.495C451.728 585.008 450.203 587.291 448.28 589.214C446.357 591.137 444.074 592.662 441.561 593.703C439.049 594.743 436.356 595.279 433.637 595.279C421.97 595.279 412.637 591.779 412.637 574.571C412.637 557.362 421.97 548.612 433.637 548.612Z" fill="white"/>
</svg>
