<svg width="701" height="701" viewBox="0 0 701 701" fill="none" xmlns="http://www.w3.org/2000/svg">
<path d="M350.399 295.474C380.44 295.474 404.94 319.974 404.94 350.599C404.94 379.766 380.44 404.558 350.399 404.558C320.357 404.558 295.857 379.766 295.857 350.599C295.857 319.974 320.357 295.474 350.399 295.474ZM215.357 583.933C233.732 595.016 273.982 578.099 320.357 534.349C305.19 517.141 290.315 498.474 276.315 478.933C252.811 476.683 229.445 473.178 206.315 468.433C191.44 530.849 196.982 573.724 215.357 583.933M236.065 416.516L227.607 401.641C224.399 410.099 221.19 418.558 219.149 426.724C227.024 428.474 235.774 429.933 244.815 431.391L236.065 416.516ZM426.815 394.349L450.44 350.599L426.815 306.849C418.065 291.391 408.732 277.683 400.274 263.974C384.524 263.099 367.899 263.099 350.399 263.099C332.899 263.099 316.274 263.099 300.524 263.974C292.065 277.683 282.732 291.391 273.982 306.849L250.357 350.599L273.982 394.349C282.732 409.808 292.065 423.516 300.524 437.224C316.274 438.099 332.899 438.099 350.399 438.099C367.899 438.099 384.524 438.099 400.274 437.224C408.732 423.516 418.065 409.808 426.815 394.349M350.399 198.349C344.857 204.766 339.024 211.474 333.19 219.349H367.607C361.774 211.474 355.94 204.766 350.399 198.349ZM350.399 502.849C355.94 496.433 361.774 489.724 367.607 481.849H333.19C339.024 489.724 344.857 496.433 350.399 502.849ZM485.149 117.266C467.065 106.183 426.815 123.099 380.44 166.849C395.607 184.058 410.482 202.724 424.482 222.266C448.399 224.599 472.024 228.099 494.482 232.766C509.357 170.349 503.815 127.474 485.149 117.266ZM464.732 284.683L473.19 299.558C476.399 291.099 479.607 282.641 481.649 274.474C473.774 272.724 465.024 271.266 455.982 269.808L464.732 284.683M507.024 79.0577C549.899 103.558 554.565 168.016 536.482 243.266C610.565 265.141 663.94 301.308 663.94 350.599C663.94 399.891 610.565 436.058 536.482 457.933C554.565 533.183 549.899 597.641 507.024 622.141C464.44 646.641 406.399 618.641 350.399 565.266C294.399 618.641 236.357 646.641 193.482 622.141C150.899 597.641 146.232 533.183 164.315 457.933C90.2319 436.058 36.8569 399.891 36.8569 350.599C36.8569 301.308 90.2319 265.141 164.315 243.266C146.232 168.016 150.899 103.558 193.482 79.0577C236.357 54.5577 294.399 82.5577 350.399 135.933C406.399 82.5577 464.44 54.5577 507.024 79.0577ZM498.565 350.599C508.482 372.474 517.232 394.349 524.524 416.516C585.774 398.141 620.19 371.891 620.19 350.599C620.19 329.308 585.774 303.058 524.524 284.683C517.232 306.849 508.482 328.724 498.565 350.599ZM202.232 350.599C192.315 328.724 183.565 306.849 176.274 284.683C115.024 303.058 80.6069 329.308 80.6069 350.599C80.6069 371.891 115.024 398.141 176.274 416.516C183.565 394.349 192.315 372.474 202.232 350.599ZM464.732 416.516L455.982 431.391C465.024 429.933 473.774 428.474 481.649 426.724C479.607 418.558 476.399 410.099 473.19 401.641L464.732 416.516M380.44 534.349C426.815 578.099 467.065 595.016 485.149 583.933C503.815 573.724 509.357 530.849 494.482 468.433C472.024 473.099 448.399 476.599 424.482 478.933C410.482 498.474 395.607 517.141 380.44 534.349M236.065 284.683L244.815 269.808C235.774 271.266 227.024 272.724 219.149 274.474C221.19 282.641 224.399 291.099 227.607 299.558L236.065 284.683ZM320.357 166.849C273.982 123.099 233.732 106.183 215.357 117.266C196.982 127.474 191.44 170.349 206.315 232.766C229.445 228.02 252.811 224.515 276.315 222.266C290.315 202.724 305.19 184.058 320.357 166.849V166.849Z" fill="white"/>
</svg>
