<svg width="946" height="687" viewBox="0 0 946 687" fill="none" xmlns="http://www.w3.org/2000/svg">
<path d="M690.53 111.47C721.572 111.47 746.737 86.5739 746.737 55.8625C746.737 25.1511 721.572 0.254639 690.53 0.254639C659.487 0.254639 634.323 25.1511 634.323 55.8625C634.323 86.5739 659.487 111.47 690.53 111.47Z" fill="white"/>
<path fill-rule="evenodd" clip-rule="evenodd" d="M890.634 167.279C904.169 167.551 927.144 170.828 939.332 191.72C939.333 191.721 939.333 191.722 939.334 191.723C951.303 212.241 942.969 233.393 938.392 242.879C932.631 254.82 923.577 267.126 913.329 279.033C892.515 303.218 861.432 331.846 823.934 361.874C792.214 387.276 755.16 414.269 714.546 441.082C714.655 444.023 714.71 446.978 714.71 449.946C714.71 580.781 607.474 686.874 475.229 686.874C474.76 686.874 474.29 686.865 473.82 686.846C408.895 684.295 357.312 663.319 319.069 631.489C280.369 644.068 243.398 654.506 209.713 662.596C163.292 673.745 121.816 680.754 90.0264 682.423C74.3753 683.245 59.0975 682.896 46.0766 680.185C35.6956 678.023 13.7975 671.744 4.57638 650.008C4.57581 650.007 4.57523 650.006 4.57466 650.004C-4.59633 628.383 5.84464 608.78 13.5411 598.007C22.2039 585.882 35.7447 572.918 53.7081 558.553C88.0588 531.083 145.454 493.147 237.02 440.063C241.41 328.085 320.358 219.051 473.826 213.045C474.294 213.026 474.762 213.017 475.229 213.017C525.914 213.017 572.922 228.595 611.627 255.176C716.805 211.77 786.381 187.592 831.854 176.113C855.645 170.107 875.125 166.967 890.634 167.279ZM582.36 321.282C583.131 321.983 583.931 322.648 584.757 323.275C610.147 344.783 628.994 373.633 637.938 406.501C594.642 433.43 548.058 459.607 500.309 482.927C447.495 508.72 392.734 531.273 340.133 550.03C269.45 454.622 314.728 290.04 475.923 283.254C516.344 283.415 553.407 297.658 582.36 321.282ZM404.793 601.052C425.263 609.949 448.974 615.498 475.926 616.637C555.427 616.318 621.957 561.494 639.308 487.987C604.707 508.329 568.566 527.919 531.734 545.907C489.947 566.315 447.038 584.775 404.793 601.052ZM269.767 573.312C259.275 555.468 251.289 536.332 245.809 516.523C173.656 559.17 128.269 589.604 100.905 611.138C125.142 608.686 156.477 603.106 192.965 594.343C216.939 588.585 242.759 581.545 269.767 573.312ZM58.4692 610.833C58.5027 610.817 58.8619 610.911 59.4464 611.164C58.7279 610.976 58.4357 610.849 58.4692 610.833ZM70.6553 639.824C70.4951 640.167 70.383 640.349 70.367 640.354C70.351 640.359 70.4311 640.187 70.6553 639.824ZM699.374 366.34C691.417 345.469 680.567 326.002 667.307 308.417C755.308 272.853 812.754 253.42 849.406 244.168C849.496 244.146 849.585 244.123 849.675 244.1C832.795 261.925 808.936 283.525 779.269 307.281C755.595 326.239 728.675 346.211 699.374 366.34ZM874.872 211.418C875.024 210.795 875.168 210.45 875.203 210.433C875.237 210.416 875.16 210.728 874.872 211.418ZM891.816 237.706C891.799 237.719 891.544 237.695 891.106 237.597C891.615 237.645 891.834 237.694 891.816 237.706Z" fill="white"/>
</svg>
