<svg width="701" height="701" viewBox="0 0 701 701" fill="none" xmlns="http://www.w3.org/2000/svg">
<path fill-rule="evenodd" clip-rule="evenodd" d="M64.854 65V636.2H636.054V65H64.854ZM498.882 342.438V342.446C504.359 342.463 510.585 342.745 515.266 343.253C534.333 345.315 549.181 353.541 561.813 369.035C568.104 376.753 570.255 380.13 569.798 381.575C569.502 382.507 565.186 385.599 551.463 394.707C537.983 403.657 533.641 406.338 532.633 406.338C531.61 406.338 529.479 404.146 526.409 399.936C520.494 391.831 514.456 388.133 505.122 386.899C495.084 385.569 486.079 388.733 481.669 395.142C477.899 400.619 477.329 409.431 480.325 415.834C483.797 423.25 490.08 427.351 514.159 437.908C541.929 450.085 556.002 458.42 566.251 468.764C577.289 479.903 582.881 492.763 584.598 510.955C585.437 519.822 584.412 530.331 581.875 538.875C575.652 559.82 558.859 575.157 534.247 582.376C527.443 584.371 521.113 585.562 514.85 586.021C505.29 586.725 491.606 586.338 483.37 585.139C462.532 582.103 439.01 569.977 427.28 556.229C421.522 549.48 414.171 538.372 414.171 536.419C414.171 535.476 414.638 534.939 416.489 533.763C421.98 530.275 453.441 512.29 454.051 512.29C454.421 512.29 456.064 514.226 457.702 516.594C461.414 521.953 470.54 531.164 475.18 534.237C478.97 536.747 483.817 538.761 489.571 540.216C492.866 541.038 494.611 541.185 501.801 541.185C509.148 541.182 510.655 541.059 513.942 540.175C522.636 537.836 529.422 532.993 532.297 527.08C533.557 524.525 533.582 524.206 533.582 518.008V511.582L532.037 508.516C528.295 501.087 520.231 495.99 494.734 484.947C483.023 479.873 468.68 472.721 463.08 469.162C450.299 461.04 441.441 451.756 435.629 440.39C429.847 429.088 428.986 424.881 428.972 407.887C428.958 394.582 428.935 394.746 431.689 386.255C434.188 378.55 439.304 369.942 444.951 363.939C456.221 351.959 472.689 344.259 490.32 342.728C492.574 342.514 495.595 342.431 498.881 342.441L498.882 342.438ZM347.178 345.066H347.184C381.138 345.083 400.602 345.2 400.914 345.396C401.502 345.76 401.576 348.716 401.576 367.575V389.332L367.695 389.456L333.814 389.579V485.777C333.814 538.687 333.706 582.29 333.559 582.675C333.319 583.323 330.713 583.372 308.667 583.372H284.045L283.79 582.378C283.626 581.832 283.506 538.227 283.503 485.479L283.495 389.573L249.615 389.453L215.732 389.33V367.83C215.732 350.778 215.85 346.211 216.305 345.757C216.771 345.277 234.062 345.154 308.567 345.08C322.931 345.066 335.86 345.059 347.179 345.066H347.178Z" fill="white"/>
</svg>
