<svg width="554" height="1059" viewBox="0 0 554 1059" fill="none" xmlns="http://www.w3.org/2000/svg">
<path fill-rule="evenodd" clip-rule="evenodd" d="M239.458 375.17C146.764 375.17 71.6199 450.828 71.6199 544.158C71.6199 637.487 146.764 713.145 239.458 713.145C332.153 713.145 407.297 637.487 407.297 544.158C407.297 450.828 332.153 375.17 239.458 375.17ZM0.878662 544.158C0.878662 411.491 107.694 303.944 239.458 303.944C371.222 303.944 478.038 411.491 478.038 544.158C478.038 676.824 371.222 784.371 239.458 784.371C107.694 784.371 0.878662 676.824 0.878662 544.158Z" fill="white"/>
<path fill-rule="evenodd" clip-rule="evenodd" d="M249.565 202.002C234.828 297.027 222.775 423.385 219.979 546.55C217.446 658.16 222.313 775.995 231.309 865.587C232.36 876.051 233.461 886.072 234.606 895.605C240.919 856.543 247.89 805.057 255.513 737.756C257.72 718.281 275.383 704.272 294.965 706.466C314.548 708.66 328.634 726.226 326.428 745.701C313.339 861.251 301.861 933.396 291.713 977.099C286.712 998.637 281.592 1015.28 275.84 1027.24C273.008 1033.13 269.046 1039.98 263.255 1045.8C257.243 1051.84 246.676 1059.17 232.043 1058.89C216.397 1058.6 206.02 1049.84 200.974 1044.32C195.742 1038.6 192.201 1032.11 189.773 1026.89C184.81 1016.2 180.852 1002.66 177.525 988.29C170.743 958.995 164.932 918.776 160.299 872.64C150.999 780.021 146.039 659.291 148.634 544.948C151.5 418.705 163.824 289.268 179.036 191.183C186.618 142.293 195.064 100.225 203.699 69.9123C207.941 55.0229 212.688 41.295 218.14 30.6727C220.791 25.5068 224.574 19.1367 229.933 13.6162C234.872 8.52855 246.047 -0.747873 262.719 0.0480947L262.736 0.0489178C278.51 0.809603 288.723 10.0966 293.877 16.5741C298.969 22.9732 302.224 30.2712 304.496 36.5348C309.142 49.3462 312.955 67.2839 316.355 90.9791C323.247 138.999 329.493 218.613 334.212 347.13C334.931 366.715 319.55 383.171 299.857 383.887C280.163 384.602 263.616 369.305 262.897 349.72C260.206 276.461 257.042 220.059 253.638 176.935C252.267 184.984 250.907 193.347 249.565 202.002ZM236.558 58.6266C236.555 58.6212 236.553 58.6184 236.553 58.6184C236.553 58.6184 236.555 58.6211 236.558 58.6266ZM210.703 998.051C210.703 998.051 210.716 998.028 210.744 997.986C210.717 998.031 210.703 998.052 210.703 998.051ZM255.172 998.339C255.193 998.373 255.204 998.39 255.204 998.391C255.204 998.392 255.193 998.375 255.172 998.339ZM261.008 35.4929L261.008 35.4873L261.008 35.4929Z" fill="white"/>
<path d="M443.722 317.017C477.114 317.017 504.184 289.947 504.184 256.555C504.184 223.163 477.114 196.093 443.722 196.093C410.329 196.093 383.26 223.163 383.26 256.555C383.26 289.947 410.329 317.017 443.722 317.017Z" fill="white"/>
<path d="M528.695 424.868C542.233 424.868 553.207 413.162 553.207 398.722C553.207 384.282 542.233 372.576 528.695 372.576C515.158 372.576 504.184 384.282 504.184 398.722C504.184 413.162 515.158 424.868 528.695 424.868Z" fill="white"/>
<path d="M445.356 849.736C459.796 849.736 471.501 838.03 471.501 823.59C471.501 809.15 459.796 797.444 445.356 797.444C430.916 797.444 419.21 809.15 419.21 823.59C419.21 838.03 430.916 849.736 445.356 849.736Z" fill="white"/>
<path d="M49.902 862.809C69.7568 862.809 85.8524 845.981 85.8524 825.224C85.8524 804.467 69.7568 787.64 49.902 787.64C30.0472 787.64 13.9517 804.467 13.9517 825.224C13.9517 845.981 30.0472 862.809 49.902 862.809Z" fill="white"/>
</svg>
