<svg width="458" height="458" viewBox="0 0 458 458" fill="none" xmlns="http://www.w3.org/2000/svg">
<path fill-rule="evenodd" clip-rule="evenodd" d="M228.645 67.8237C139.838 67.8237 67.8458 139.816 67.8458 228.623C67.8458 317.43 139.838 389.423 228.645 389.423C317.452 389.423 389.445 317.43 389.445 228.623C389.445 139.816 317.452 67.8237 228.645 67.8237ZM0.0704346 228.623C0.0704346 102.385 102.407 0.0483398 228.645 0.0483398C354.884 0.0483398 457.22 102.385 457.22 228.623C457.22 354.862 354.884 457.198 228.645 457.198C102.407 457.198 0.0704346 354.862 0.0704346 228.623Z" fill="white"/>
<path fill-rule="evenodd" clip-rule="evenodd" d="M238.178 111.514C240.36 124.724 231.42 137.202 218.21 139.384C189.992 144.046 174.258 154.51 164.779 164.224L164.771 164.232C157.838 171.331 154.401 177.761 149.566 186.806L149.484 186.96C144.499 196.285 138.066 208.245 125.155 219.978C99.8776 242.95 67.8739 249.27 41.6084 250.177C28.2271 250.639 17.0051 240.166 16.5432 226.784C16.0814 213.403 26.5546 202.181 39.9358 201.719C60.7967 200.999 79.3806 196.06 92.5454 184.096C98.8558 178.361 102.054 172.837 106.723 164.102C106.928 163.718 107.136 163.328 107.347 162.932C112.046 154.121 118.269 142.454 130.077 130.361C130.079 130.359 130.082 130.356 130.085 130.353C147.192 112.825 172.501 97.7913 210.308 91.5461C223.518 89.364 235.996 98.304 238.178 111.514Z" fill="white"/>
<path fill-rule="evenodd" clip-rule="evenodd" d="M312.323 297.109C328.004 307.326 332.433 328.321 322.215 344.001C311.143 360.994 281.813 400.959 227.265 423.629L227.202 423.656C201.765 434.167 174.486 439.495 146.964 439.327C128.249 439.213 113.17 423.949 113.284 405.233C113.398 386.518 128.662 371.439 147.377 371.553C165.868 371.666 184.195 368.088 201.286 361.031C237.627 345.916 257.628 318.976 265.431 307.001C275.648 291.32 296.643 286.891 312.323 297.109Z" fill="white"/>
<path fill-rule="evenodd" clip-rule="evenodd" d="M354.313 60.1713C372.98 61.5179 387.022 77.7422 385.675 96.4093C384.136 117.743 377.372 171.145 337.548 222.371L310.794 201.571L337.548 222.371C288.37 285.633 222.31 302.528 203.242 306.729C184.965 310.756 166.884 299.204 162.857 280.926C158.83 262.649 170.382 244.568 188.66 240.541C202.404 237.513 249.447 225.274 284.039 180.773L284.04 180.772C312.082 144.703 316.975 106.781 318.075 91.5331C319.422 72.8659 335.646 58.8248 354.313 60.1713Z" fill="white"/>
<path d="M292.708 113.693C296.904 106.425 291.891 95.675 281.511 89.6823C271.131 83.6895 259.315 84.7231 255.119 91.9909C250.923 99.2587 255.936 110.008 266.316 116.001C276.696 121.994 288.512 120.96 292.708 113.693Z" fill="white"/>
<path d="M205.774 212.402C222.695 212.402 236.413 199.597 236.413 183.801C236.413 168.005 222.695 155.2 205.774 155.2C188.852 155.2 175.135 168.005 175.135 183.801C175.135 199.597 188.852 212.402 205.774 212.402Z" fill="white"/>
<path d="M366.997 280.066C376.04 269.492 376.547 255.086 368.131 247.887C359.714 240.689 345.56 243.424 336.517 253.997C327.475 264.57 326.967 278.977 335.384 286.176C343.801 293.374 357.954 290.639 366.997 280.066Z" fill="white"/>
<path d="M142.284 329.127C154.738 322.773 158.225 304.666 150.071 288.683C141.917 272.701 125.211 264.896 112.756 271.25C100.301 277.604 96.815 295.712 104.969 311.694C113.123 327.676 129.829 335.481 142.284 329.127Z" fill="white"/>
</svg>
