<svg width="3038" height="2310" viewBox="0 0 3038 2310" fill="none" xmlns="http://www.w3.org/2000/svg">
<path fill-rule="evenodd" clip-rule="evenodd" d="M1572.83 650.234C1447.04 650.234 1345.07 751.512 1345.07 876.444C1345.07 1001.38 1447.04 1102.65 1572.83 1102.65C1698.62 1102.65 1800.59 1001.38 1800.59 876.444C1800.59 751.512 1698.62 650.234 1572.83 650.234ZM1249.08 876.444C1249.08 698.854 1394.03 554.889 1572.83 554.889C1751.63 554.889 1896.58 698.854 1896.58 876.444C1896.58 1054.03 1751.63 1198 1572.83 1198C1394.03 1198 1249.08 1054.03 1249.08 876.444Z" fill="white"/>
<path fill-rule="evenodd" clip-rule="evenodd" d="M2011.69 2.50246C2021.86 5.83419 2035.27 14.1806 2041.86 30.7318L2041.87 30.7563C2048.21 46.7099 2044.6 61.0885 2040.65 69.5269C2037.06 77.2158 2032.28 82.3164 2029.81 84.7526C2024.73 89.7675 2019.17 93.3324 2016.06 95.255C2009.06 99.5701 1999.82 104.242 1990.56 108.787C1984.03 111.988 1976.91 115.407 1969.14 119.14C1952.94 126.918 1933.91 136.058 1911.53 147.42C1846.42 180.473 1759.17 229.366 1670.49 299.04C1579.14 370.826 1453.03 473.246 1387.51 648.21C1349.08 750.786 1344.59 843.571 1346.64 904.341C1347.51 930.215 1327.44 952.052 1301.41 953.533C1296.72 953.8 1292.14 953.387 1287.78 952.38C1175.61 1018.05 1106.99 1063.85 1066.93 1095.5C1099.7 1092.17 1142.07 1084.59 1191.4 1072.7C1310.85 1043.9 1464.19 991.475 1607 921.47C1751.28 850.747 1887.69 760.643 1984.21 683.044C2024.34 650.779 2056.62 621.443 2079.44 597.238C2079.31 597.271 2079.18 597.305 2079.05 597.338C2021.14 612.013 1924.85 645.559 1769.12 710.864C1744.7 721.105 1716.54 709.744 1706.23 685.488C1695.92 661.233 1707.36 633.268 1731.78 623.027C1888.5 557.308 1990.19 521.458 2055.32 504.953C2087.49 496.799 2113.83 492.537 2134.81 492.964C2153.13 493.337 2184.18 497.802 2200.66 526.16C2216.84 554.014 2205.57 582.73 2199.38 595.606C2191.59 611.816 2179.35 628.522 2165.49 644.688C2137.35 677.521 2095.32 716.387 2044.61 757.153C1942.83 838.978 1800.44 932.971 1649.48 1006.97C1500.07 1080.21 1340.05 1134.97 1214.04 1165.35C1151.27 1180.49 1095.19 1190 1052.2 1192.27C1031.04 1193.39 1010.38 1192.92 992.779 1189.24C978.749 1186.31 949.127 1177.8 936.653 1148.29L980.91 1129.83L936.65 1148.28C924.25 1118.93 938.364 1092.32 948.774 1077.69C960.488 1061.23 978.799 1043.63 1003.09 1024.13C1049.47 986.897 1126.92 935.497 1250.41 863.604C1251.79 797.377 1261.94 710 1297.54 614.973C1297.54 614.97 1297.54 614.975 1297.54 614.973C1369.48 422.858 1504.87 308.124 1597.37 234.948C1478.03 255.049 1344.89 255.228 1218.17 205.841C1170.7 187.334 1125.18 162.085 1089.35 142.17C1095.8 152.351 1102.78 163.103 1110.06 174.325C1110.66 175.24 1111.25 176.158 1111.85 177.079C1130.98 206.561 1152.23 239.442 1166.1 267.882C1172.96 281.945 1179.56 297.958 1182.43 313.856C1185.08 328.6 1186.44 354.537 1167.5 375.962L1167.48 375.988C1143.56 403.016 1108.19 399.977 1092.04 397.471C1071.55 394.291 1049.01 386.506 1027.62 377.626C984.217 359.598 934.492 332.284 893.74 308.567C870.868 295.256 863.192 266.05 876.594 243.334C889.996 220.618 919.401 212.993 942.273 226.304C982.331 249.618 1027.48 274.219 1064.66 289.661C1066.66 290.491 1068.6 291.281 1070.49 292.033C1059.99 273.381 1046.21 251.933 1031.16 228.728C1030.09 227.082 1029.01 225.425 1027.93 223.76C1009.81 195.849 990.104 165.503 976.875 139.616C969.96 126.084 963.14 110.638 959.904 95.4225C957.091 82.1905 953.965 54.5482 974.749 32.3888C989.028 17.1659 1007.16 12.9381 1020.96 12.7511C1033.8 12.577 1045.75 15.7112 1054.88 18.7852C1073.23 24.958 1094.11 35.8444 1113.86 46.6081C1121.58 50.813 1129.44 55.1784 1137.46 59.6247C1173.36 79.5403 1212.19 101.079 1253.24 117.084C1253.24 117.085 1253.24 117.084 1253.24 117.084C1410.24 178.27 1586.07 150.204 1728.93 104.469C1799.59 81.8473 1860.3 55.5203 1904.24 35.4353C1913.39 31.2545 1922.25 27.1391 1930.37 23.3636C1940.96 18.4422 1950.31 14.0985 1957.44 10.9404C1963.69 8.17232 1970.66 5.20577 1976.78 3.24619C1979.33 2.43103 1985.17 0.624116 1992.11 0.135151C1995.42 -0.0975875 2002.91 -0.371171 2011.69 2.50246ZM1088.06 331.626C1088.05 331.619 1088.03 331.457 1088.01 331.158C1088.06 331.483 1088.07 331.632 1088.06 331.626ZM1111.15 303.754C1112.04 303.645 1112.56 303.672 1112.6 303.713C1112.64 303.754 1112.2 303.808 1111.15 303.754ZM1053.66 74.6844C1053.67 74.696 1053.72 74.9457 1053.76 75.3981C1053.67 74.8989 1053.65 74.6727 1053.66 74.6844ZM1966.02 13.8606C1966.03 13.8608 1965.94 13.9271 1965.73 14.0608C1965.91 13.9275 1966.02 13.8603 1966.02 13.8606ZM1009.51 1095.09C1009.56 1095.07 1010.05 1095.2 1010.84 1095.54C1009.87 1095.29 1009.47 1095.12 1009.51 1095.09ZM1025.62 1135.18C1025.6 1135.18 1025.7 1134.95 1026.01 1134.46C1025.79 1134.92 1025.64 1135.17 1025.62 1135.18ZM2136.38 588.569C2136.36 588.585 2136.02 588.553 2135.43 588.421C2136.11 588.486 2136.41 588.552 2136.38 588.569ZM2113.49 552.896C2113.7 552.05 2113.89 551.581 2113.94 551.558C2113.98 551.535 2113.88 551.958 2113.49 552.896Z" fill="white"/>
<path d="M111.892 1952V1668H0V1602H304.706V1668H192.814V1952H111.892Z" fill="white"/>
<path d="M506.093 1679C527.406 1679 546.388 1683.33 563.038 1692C580.022 1700.33 593.342 1713.33 603 1731C612.657 1748.33 617.486 1770.67 617.486 1798V1952H539.561V1810C539.561 1788.33 534.732 1772.33 525.075 1762C515.751 1751.67 502.43 1746.5 485.114 1746.5C472.792 1746.5 461.636 1749.17 451.646 1754.5C441.989 1759.5 434.329 1767.33 428.668 1778C423.34 1788.67 420.676 1802.33 420.676 1819V1952H342.751V1581H420.676V1757.5L403.193 1735C412.85 1717 426.67 1703.17 444.653 1693.5C462.635 1683.83 483.116 1679 506.093 1679Z" fill="white"/>
<path d="M817.948 1956C789.309 1956 763.834 1950 741.522 1938C719.543 1926 702.06 1909.67 689.073 1889C676.418 1868 670.091 1844.17 670.091 1817.5C670.091 1790.5 676.418 1766.67 689.073 1746C702.06 1725 719.543 1708.67 741.522 1697C763.834 1685 789.309 1679 817.948 1679C846.254 1679 871.563 1685 893.875 1697C916.187 1708.67 933.67 1724.83 946.325 1745.5C958.979 1766.17 965.306 1790.17 965.306 1817.5C965.306 1844.17 958.979 1868 946.325 1889C933.67 1909.67 916.187 1926 893.875 1938C871.563 1950 846.254 1956 817.948 1956ZM817.948 1892C830.936 1892 842.591 1889 852.915 1883C863.238 1877 871.397 1868.5 877.391 1857.5C883.385 1846.17 886.382 1832.83 886.382 1817.5C886.382 1801.83 883.385 1788.5 877.391 1777.5C871.397 1766.5 863.238 1758 852.915 1752C842.591 1746 830.936 1743 817.948 1743C804.961 1743 793.306 1746 782.982 1752C772.659 1758 764.334 1766.5 758.006 1777.5C752.012 1788.5 749.015 1801.83 749.015 1817.5C749.015 1832.83 752.012 1846.17 758.006 1857.5C764.334 1868.5 772.659 1877 782.982 1883C793.306 1889 804.961 1892 817.948 1892Z" fill="white"/>
<path d="M1361.56 1679C1382.87 1679 1401.69 1683.33 1418.01 1692C1434.66 1700.33 1447.64 1713.33 1456.97 1731C1466.63 1748.33 1471.45 1770.67 1471.45 1798V1952H1393.53V1810C1393.53 1788.33 1389.03 1772.33 1380.04 1762C1371.05 1751.67 1358.4 1746.5 1342.08 1746.5C1330.76 1746.5 1320.6 1749.17 1311.61 1754.5C1302.62 1759.5 1295.62 1767.17 1290.63 1777.5C1285.63 1787.83 1283.14 1801 1283.14 1817V1952H1205.21V1810C1205.21 1788.33 1200.72 1772.33 1191.72 1762C1183.07 1751.67 1170.58 1746.5 1154.26 1746.5C1142.94 1746.5 1132.78 1749.17 1123.79 1754.5C1114.8 1759.5 1107.81 1767.17 1102.81 1777.5C1097.81 1787.83 1095.32 1801 1095.32 1817V1952H1017.39V1683H1091.82V1756.5L1077.83 1735C1087.16 1716.67 1100.31 1702.83 1117.3 1693.5C1134.61 1683.83 1154.26 1679 1176.24 1679C1200.88 1679 1222.36 1685.33 1240.68 1698C1259.33 1710.33 1271.65 1729.33 1277.64 1755L1250.17 1747.5C1259.16 1726.5 1273.48 1709.83 1293.13 1697.5C1313.11 1685.17 1335.92 1679 1361.56 1679Z" fill="white"/>
<path d="M1706.14 1952V1899.5L1701.15 1888V1794C1701.15 1777.33 1695.98 1764.33 1685.66 1755C1675.67 1745.67 1660.19 1741 1639.21 1741C1624.89 1741 1610.73 1743.33 1596.75 1748C1583.09 1752.33 1571.44 1758.33 1561.78 1766L1533.81 1711.5C1548.46 1701.17 1566.11 1693.17 1586.76 1687.5C1607.4 1681.83 1628.38 1679 1649.7 1679C1690.66 1679 1722.46 1688.67 1745.1 1708C1767.75 1727.33 1779.07 1757.5 1779.07 1798.5V1952H1706.14ZM1624.22 1956C1603.24 1956 1585.26 1952.5 1570.27 1945.5C1555.29 1938.17 1543.8 1928.33 1535.81 1916C1527.81 1903.67 1523.82 1889.83 1523.82 1874.5C1523.82 1858.5 1527.65 1844.5 1535.31 1832.5C1543.3 1820.5 1555.79 1811.17 1572.77 1804.5C1589.75 1797.5 1611.9 1794 1639.21 1794H1710.64V1839.5H1647.7C1629.38 1839.5 1616.73 1842.5 1609.73 1848.5C1603.07 1854.5 1599.74 1862 1599.74 1871C1599.74 1881 1603.57 1889 1611.23 1895C1619.23 1900.67 1630.05 1903.5 1643.7 1903.5C1656.69 1903.5 1668.34 1900.5 1678.67 1894.5C1688.99 1888.17 1696.48 1879 1701.15 1867L1713.13 1903C1707.47 1920.33 1697.15 1933.5 1682.16 1942.5C1667.18 1951.5 1647.86 1956 1624.22 1956Z" fill="white"/>
<path d="M1940.01 1956C1917.03 1956 1894.89 1953.33 1873.57 1948C1852.59 1942.33 1835.94 1935.33 1823.62 1927L1849.6 1871C1861.92 1878.67 1876.4 1885 1893.05 1890C1910.04 1894.67 1926.69 1897 1943.01 1897C1960.99 1897 1973.64 1894.83 1980.97 1890.5C1988.63 1886.17 1992.46 1880.17 1992.46 1872.5C1992.46 1866.17 1989.46 1861.5 1983.47 1858.5C1977.81 1855.17 1970.15 1852.67 1960.49 1851C1950.83 1849.33 1940.18 1847.67 1928.52 1846C1917.2 1844.33 1905.71 1842.17 1894.05 1839.5C1882.4 1836.5 1871.74 1832.17 1862.08 1826.5C1852.43 1820.83 1844.6 1813.17 1838.61 1803.5C1832.95 1793.83 1830.12 1781.33 1830.12 1766C1830.12 1749 1834.94 1734 1844.6 1721C1854.59 1708 1868.91 1697.83 1887.56 1690.5C1906.21 1682.83 1928.52 1679 1954.5 1679C1972.81 1679 1991.46 1681 2010.44 1685C2029.42 1689 2045.24 1694.83 2057.9 1702.5L2031.92 1758C2018.93 1750.33 2005.78 1745.17 1992.46 1742.5C1979.47 1739.5 1966.82 1738 1954.5 1738C1937.18 1738 1924.52 1740.33 1916.53 1745C1908.54 1749.67 1904.54 1755.67 1904.54 1763C1904.54 1769.67 1907.37 1774.67 1913.04 1778C1919.03 1781.33 1926.86 1784 1936.51 1786C1946.17 1788 1956.66 1789.83 1967.98 1791.5C1979.64 1792.83 1991.29 1795 2002.95 1798C2014.6 1801 2025.09 1805.33 2034.42 1811C2044.08 1816.33 2051.9 1823.83 2057.9 1833.5C2063.89 1842.83 2066.89 1855.17 2066.89 1870.5C2066.89 1887.17 2061.89 1902 2051.9 1915C2041.91 1927.67 2027.42 1937.67 2008.44 1945C1989.79 1952.33 1966.98 1956 1940.01 1956Z" fill="white"/>
<path d="M2261.93 1952V1602H2432.76C2476.72 1602 2509.69 1610.33 2531.66 1627C2553.98 1643.67 2565.13 1665.67 2565.13 1693C2565.13 1711.33 2560.64 1727.33 2551.65 1741C2542.65 1754.33 2530.33 1764.67 2514.68 1772C2499.03 1779.33 2481.05 1783 2460.73 1783L2470.22 1762.5C2492.2 1762.5 2511.68 1766.17 2528.67 1773.5C2545.65 1780.5 2558.81 1791 2568.13 1805C2577.79 1819 2582.62 1836.17 2582.62 1856.5C2582.62 1886.5 2570.79 1910 2547.15 1927C2523.51 1943.67 2488.71 1952 2442.75 1952H2261.93ZM2342.35 1891H2436.76C2457.74 1891 2473.55 1887.67 2484.21 1881C2495.2 1874 2500.69 1863 2500.69 1848C2500.69 1833.33 2495.2 1822.5 2484.21 1815.5C2473.55 1808.17 2457.74 1804.5 2436.76 1804.5H2336.35V1745.5H2422.77C2442.42 1745.5 2457.4 1742.17 2467.73 1735.5C2478.38 1728.5 2483.71 1718 2483.71 1704C2483.71 1690.33 2478.38 1680.17 2467.73 1673.5C2457.4 1666.5 2442.42 1663 2422.77 1663H2342.35V1891Z" fill="white"/>
<path d="M2643.88 1952V1602H2710.82L2859.67 1849H2824.21L2970.56 1602H3037L3038 1952H2962.07L2961.57 1718.5H2975.56L2858.67 1915H2822.21L2702.82 1718.5H2719.81V1952H2643.88Z" fill="white"/>
<path d="M646.569 2273.89C636.702 2273.89 627.584 2272.27 619.216 2269.02C610.848 2265.66 603.604 2260.98 597.484 2254.99C591.364 2249 586.555 2241.96 583.058 2233.85C579.686 2225.74 578 2216.88 578 2207.28C578 2197.68 579.686 2188.82 583.058 2180.71C586.555 2172.6 591.364 2165.56 597.484 2159.57C603.729 2153.58 611.035 2148.97 619.403 2145.72C627.772 2142.36 636.889 2140.67 646.756 2140.67C656.248 2140.67 665.178 2142.29 673.546 2145.54C681.914 2148.65 688.971 2153.39 694.716 2159.76L685.911 2168.55C680.541 2163.06 674.608 2159.13 668.113 2156.76C661.619 2154.27 654.624 2153.02 647.131 2153.02C639.262 2153.02 631.956 2154.39 625.211 2157.14C618.467 2159.76 612.597 2163.56 607.601 2168.55C602.605 2173.41 598.67 2179.15 595.798 2185.76C593.05 2192.25 591.676 2199.42 591.676 2207.28C591.676 2215.14 593.05 2222.37 595.798 2228.98C598.67 2235.47 602.605 2241.21 607.601 2246.2C612.597 2251.06 618.467 2254.87 625.211 2257.61C631.956 2260.23 639.262 2261.54 647.131 2261.54C654.624 2261.54 661.619 2260.29 668.113 2257.8C674.608 2255.3 680.541 2251.31 685.911 2245.82L694.716 2254.62C688.971 2260.98 681.914 2265.78 673.546 2269.02C665.178 2272.27 656.186 2273.89 646.569 2273.89Z" fill="white"/>
<path d="M721.46 2272.77V2174.54H734.2V2201.29L732.888 2196.62C735.636 2189.13 740.257 2183.46 746.752 2179.59C753.246 2175.6 761.302 2173.6 770.919 2173.6V2186.51C770.42 2186.51 769.92 2186.51 769.421 2186.51C768.921 2186.39 768.421 2186.32 767.922 2186.32C757.555 2186.32 749.437 2189.51 743.567 2195.87C737.697 2202.1 734.762 2211.02 734.762 2222.62V2272.77H721.46Z" fill="white"/>
<path d="M849.509 2272.77V2251.06L848.947 2247.51V2211.21C848.947 2202.85 846.574 2196.43 841.828 2191.94C837.207 2187.45 830.275 2185.2 821.033 2185.2C814.663 2185.2 808.606 2186.26 802.86 2188.38C797.115 2190.5 792.244 2193.31 788.247 2196.8L782.252 2186.89C787.248 2182.64 793.243 2179.4 800.237 2177.16C807.232 2174.79 814.601 2173.6 822.344 2173.6C835.084 2173.6 844.888 2176.78 851.758 2183.14C858.752 2189.38 862.249 2198.92 862.249 2211.77V2272.77H849.509ZM815.6 2273.7C808.231 2273.7 801.799 2272.52 796.303 2270.15C790.933 2267.65 786.811 2264.28 783.938 2260.04C781.066 2255.68 779.629 2250.69 779.629 2245.08C779.629 2239.96 780.816 2235.35 783.189 2231.23C785.687 2226.99 789.684 2223.62 795.179 2221.13C800.799 2218.51 808.293 2217.2 817.661 2217.2H851.57V2227.11H818.035C808.543 2227.11 801.924 2228.8 798.177 2232.16C794.555 2235.53 792.744 2239.71 792.744 2244.7C792.744 2250.31 794.929 2254.8 799.301 2258.17C803.672 2261.54 809.792 2263.22 817.661 2263.22C825.154 2263.22 831.587 2261.54 836.957 2258.17C842.453 2254.68 846.449 2249.69 848.947 2243.2L851.945 2252.37C849.447 2258.86 845.076 2264.03 838.831 2267.9C832.711 2271.77 824.967 2273.7 815.6 2273.7Z" fill="white"/>
<path d="M900.626 2272.77V2162.19C900.626 2153.46 903.186 2146.41 908.307 2141.05C913.428 2135.68 920.796 2133 930.414 2133C934.16 2133 937.782 2133.5 941.28 2134.5C944.777 2135.49 947.712 2137.05 950.085 2139.17L945.589 2149.09C943.715 2147.47 941.529 2146.28 939.031 2145.54C936.534 2144.66 933.848 2144.23 930.976 2144.23C925.355 2144.23 921.046 2145.79 918.049 2148.9C915.051 2152.02 913.552 2156.64 913.552 2162.75V2177.72L913.927 2183.89V2272.77H900.626ZM883.015 2185.58V2174.54H943.902V2185.58H883.015Z" fill="white"/>
<path d="M992.962 2273.7C983.72 2273.7 976.601 2271.21 971.605 2266.22C966.609 2261.23 964.111 2254.18 964.111 2245.08V2152.83H977.412V2244.33C977.412 2250.06 978.849 2254.49 981.721 2257.61C984.719 2260.73 988.965 2262.29 994.461 2262.29C1000.33 2262.29 1005.2 2260.6 1009.07 2257.24L1013.76 2266.78C1011.13 2269.15 1007.95 2270.9 1004.2 2272.02C1000.58 2273.14 996.834 2273.7 992.962 2273.7ZM946.5 2185.58V2174.54H1007.39V2185.58H946.5Z" fill="white"/>
<path d="M1037.97 2272.77V2174.54H1051.27V2272.77H1037.97ZM1044.72 2152.83C1041.97 2152.83 1039.66 2151.9 1037.78 2150.03C1035.91 2148.16 1034.97 2145.91 1034.97 2143.29C1034.97 2140.67 1035.91 2138.49 1037.78 2136.74C1039.66 2134.87 1041.97 2133.94 1044.72 2133.94C1047.46 2133.94 1049.77 2134.81 1051.65 2136.55C1053.52 2138.3 1054.46 2140.48 1054.46 2143.1C1054.46 2145.85 1053.52 2148.16 1051.65 2150.03C1049.9 2151.9 1047.59 2152.83 1044.72 2152.83Z" fill="white"/>
<path d="M1138.49 2173.6C1146.49 2173.6 1153.48 2175.16 1159.48 2178.28C1165.6 2181.27 1170.34 2185.89 1173.71 2192.12C1177.21 2198.36 1178.96 2206.22 1178.96 2215.7V2272.77H1165.66V2217.01C1165.66 2206.66 1163.04 2198.86 1157.79 2193.62C1152.67 2188.26 1145.43 2185.58 1136.06 2185.58C1129.06 2185.58 1122.94 2187.01 1117.7 2189.88C1112.58 2192.62 1108.58 2196.68 1105.71 2202.04C1102.96 2207.28 1101.59 2213.64 1101.59 2221.13V2272.77H1088.28V2174.54H1101.02V2201.48L1098.96 2196.43C1102.09 2189.32 1107.08 2183.77 1113.95 2179.78C1120.82 2175.66 1129 2173.6 1138.49 2173.6Z" fill="white"/>
<path d="M1256.85 2310C1247.86 2310 1239.24 2308.69 1231 2306.07C1222.76 2303.45 1216.08 2299.71 1210.96 2294.84L1217.7 2284.74C1222.32 2288.86 1228 2292.1 1234.75 2294.47C1241.62 2296.97 1248.86 2298.21 1256.48 2298.21C1268.97 2298.21 1278.15 2295.28 1284.02 2289.42C1289.89 2283.68 1292.83 2274.7 1292.83 2262.48V2237.97L1294.7 2221.13L1293.39 2204.29V2174.54H1306.13V2260.79C1306.13 2277.76 1301.94 2290.17 1293.57 2298.03C1285.33 2306.01 1273.09 2310 1256.85 2310ZM1254.42 2269.02C1245.05 2269.02 1236.62 2267.03 1229.13 2263.04C1221.63 2258.92 1215.7 2253.25 1211.33 2246.01C1207.08 2238.78 1204.96 2230.48 1204.96 2221.13C1204.96 2211.77 1207.08 2203.54 1211.33 2196.43C1215.7 2189.19 1221.63 2183.58 1229.13 2179.59C1236.62 2175.6 1245.05 2173.6 1254.42 2173.6C1263.16 2173.6 1271.03 2175.41 1278.02 2179.03C1285.02 2182.64 1290.58 2188.01 1294.7 2195.12C1298.82 2202.23 1300.88 2210.9 1300.88 2221.13C1300.88 2231.35 1298.82 2240.02 1294.7 2247.13C1290.58 2254.24 1285.02 2259.67 1278.02 2263.41C1271.03 2267.15 1263.16 2269.02 1254.42 2269.02ZM1255.73 2257.24C1262.97 2257.24 1269.41 2255.74 1275.03 2252.75C1280.65 2249.63 1285.08 2245.39 1288.33 2240.02C1291.58 2234.53 1293.2 2228.24 1293.2 2221.13C1293.2 2214.02 1291.58 2207.78 1288.33 2202.42C1285.08 2197.05 1280.65 2192.87 1275.03 2189.88C1269.41 2186.76 1262.97 2185.2 1255.73 2185.2C1248.61 2185.2 1242.18 2186.76 1236.43 2189.88C1230.81 2192.87 1226.38 2197.05 1223.13 2202.42C1220.01 2207.78 1218.45 2214.02 1218.45 2221.13C1218.45 2228.24 1220.01 2234.53 1223.13 2240.02C1226.38 2245.39 1230.81 2249.63 1236.43 2252.75C1242.18 2255.74 1248.61 2257.24 1255.73 2257.24Z" fill="white"/>
<path d="M1394.98 2272.77V2141.79H1406.41L1496.9 2255.55H1490.9V2141.79H1504.58V2272.77H1493.15L1402.85 2159.01H1408.85V2272.77H1394.98Z" fill="white"/>
<path d="M1586.35 2273.7C1576.11 2273.7 1567.12 2271.58 1559.37 2267.34C1551.63 2262.97 1545.57 2257.05 1541.2 2249.57C1536.83 2241.96 1534.64 2233.29 1534.64 2223.56C1534.64 2213.83 1536.71 2205.22 1540.83 2197.74C1545.07 2190.25 1550.82 2184.39 1558.06 2180.15C1565.43 2175.78 1573.68 2173.6 1582.79 2173.6C1592.04 2173.6 1600.22 2175.72 1607.33 2179.96C1614.58 2184.08 1620.26 2189.94 1624.38 2197.55C1628.51 2205.03 1630.57 2213.7 1630.57 2223.56C1630.57 2224.18 1630.5 2224.87 1630.38 2225.62C1630.38 2226.24 1630.38 2226.93 1630.38 2227.67H1544.76V2217.76H1623.26L1618.01 2221.69C1618.01 2214.58 1616.45 2208.28 1613.33 2202.79C1610.33 2197.18 1606.21 2192.81 1600.97 2189.69C1595.72 2186.57 1589.66 2185.01 1582.79 2185.01C1576.05 2185.01 1569.99 2186.57 1564.62 2189.69C1559.25 2192.81 1555.07 2197.18 1552.07 2202.79C1549.07 2208.4 1547.57 2214.83 1547.57 2222.06V2224.12C1547.57 2231.6 1549.2 2238.21 1552.44 2243.95C1555.81 2249.57 1560.44 2253.99 1566.31 2257.24C1572.3 2260.36 1579.11 2261.91 1586.73 2261.91C1592.72 2261.91 1598.28 2260.85 1603.4 2258.73C1608.65 2256.61 1613.14 2253.37 1616.89 2249L1624.38 2257.61C1620.01 2262.85 1614.52 2266.84 1607.9 2269.59C1601.4 2272.33 1594.22 2273.7 1586.35 2273.7Z" fill="white"/>
<path d="M1675.86 2272.77L1638.76 2174.54H1651.5L1685.22 2265.66H1679.42L1714.08 2174.54H1725.5L1759.79 2265.66H1753.98L1788.26 2174.54H1800.44L1763.16 2272.77H1750.61L1717.63 2187.07H1721.57L1688.41 2272.77H1675.86Z" fill="white"/>
<path d="M1902.1 2272.77L1857.89 2141.79H1872.12L1913.53 2265.1H1906.41L1949.12 2141.79H1961.86L2004.02 2265.1H1997.27L2039.05 2141.79H2052.35L2008.14 2272.77H1993.52L1953.25 2155.83H1956.99L1916.53 2272.77H1902.1Z" fill="white"/>
<path d="M2107.55 2273.7C2098.06 2273.7 2089.5 2271.58 2081.88 2267.34C2074.39 2262.97 2068.46 2257.05 2064.09 2249.57C2059.72 2241.96 2057.53 2233.29 2057.53 2223.56C2057.53 2213.7 2059.72 2205.03 2064.09 2197.55C2068.46 2190.07 2074.39 2184.2 2081.88 2179.96C2089.38 2175.72 2097.93 2173.6 2107.55 2173.6C2117.29 2173.6 2125.91 2175.72 2133.4 2179.96C2141.02 2184.2 2146.96 2190.07 2151.2 2197.55C2155.57 2205.03 2157.76 2213.7 2157.76 2223.56C2157.76 2233.29 2155.57 2241.96 2151.2 2249.57C2146.96 2257.05 2141.02 2262.97 2133.4 2267.34C2125.79 2271.58 2117.17 2273.7 2107.55 2273.7ZM2107.55 2261.91C2114.67 2261.91 2120.98 2260.36 2126.47 2257.24C2131.97 2253.99 2136.28 2249.5 2139.4 2243.77C2142.65 2237.9 2144.27 2231.17 2144.27 2223.56C2144.27 2215.82 2142.65 2209.09 2139.4 2203.35C2136.28 2197.61 2131.97 2193.18 2126.47 2190.07C2120.98 2186.82 2114.73 2185.2 2107.74 2185.2C2100.74 2185.2 2094.5 2186.82 2089 2190.07C2083.51 2193.18 2079.14 2197.61 2075.89 2203.35C2072.64 2209.09 2071.02 2215.82 2071.02 2223.56C2071.02 2231.17 2072.64 2237.9 2075.89 2243.77C2079.14 2249.5 2083.51 2253.99 2089 2257.24C2094.5 2260.36 2100.68 2261.91 2107.55 2261.91Z" fill="white"/>
<path d="M2184.92 2272.77V2174.54H2197.66V2201.29L2196.34 2196.62C2199.09 2189.13 2203.71 2183.46 2210.21 2179.59C2216.7 2175.6 2224.76 2173.6 2234.38 2173.6V2186.51C2233.88 2186.51 2233.38 2186.51 2232.88 2186.51C2232.38 2186.39 2231.88 2186.32 2231.38 2186.32C2221.01 2186.32 2212.89 2189.51 2207.02 2195.87C2201.15 2202.1 2198.22 2211.02 2198.22 2222.62V2272.77H2184.92Z" fill="white"/>
<path d="M2258.65 2272.77V2133.94H2271.95V2272.77H2258.65Z" fill="white"/>
<path d="M2348.11 2273.7C2338.75 2273.7 2330.32 2271.58 2322.82 2267.34C2315.45 2263.1 2309.65 2257.24 2305.4 2249.75C2301.15 2242.14 2299.03 2233.41 2299.03 2223.56C2299.03 2213.58 2301.15 2204.85 2305.4 2197.36C2309.65 2189.88 2315.45 2184.08 2322.82 2179.96C2330.32 2175.72 2338.75 2173.6 2348.11 2173.6C2356.73 2173.6 2364.41 2175.53 2371.16 2179.4C2378.03 2183.27 2383.46 2188.94 2387.46 2196.43C2391.58 2203.79 2393.64 2212.83 2393.64 2223.56C2393.64 2234.16 2391.64 2243.2 2387.64 2250.69C2383.65 2258.17 2378.22 2263.91 2371.35 2267.9C2364.6 2271.77 2356.86 2273.7 2348.11 2273.7ZM2349.05 2261.91C2356.05 2261.91 2362.29 2260.36 2367.79 2257.24C2373.41 2253.99 2377.78 2249.5 2380.9 2243.77C2384.15 2237.9 2385.77 2231.17 2385.77 2223.56C2385.77 2215.82 2384.15 2209.09 2380.9 2203.35C2377.78 2197.61 2373.41 2193.18 2367.79 2190.07C2362.29 2186.82 2356.05 2185.2 2349.05 2185.2C2342.18 2185.2 2336 2186.82 2330.5 2190.07C2325.01 2193.18 2320.64 2197.61 2317.39 2203.35C2314.14 2209.09 2312.52 2215.82 2312.52 2223.56C2312.52 2231.17 2314.14 2237.9 2317.39 2243.77C2320.64 2249.5 2325.01 2253.99 2330.5 2257.24C2336 2260.36 2342.18 2261.91 2349.05 2261.91ZM2386.15 2272.77V2243.2L2387.46 2223.37L2385.58 2203.54V2133.94H2398.89V2272.77H2386.15Z" fill="white"/>
<path d="M2462.35 2273.7C2454.23 2273.7 2446.55 2272.58 2439.3 2270.33C2432.06 2267.96 2426.38 2265.03 2422.25 2261.54L2428.25 2251.06C2432.25 2254.06 2437.37 2256.68 2443.61 2258.92C2449.86 2261.04 2456.41 2262.1 2463.28 2262.1C2472.65 2262.1 2479.39 2260.67 2483.52 2257.8C2487.64 2254.8 2489.7 2250.88 2489.7 2246.01C2489.7 2242.39 2488.51 2239.59 2486.14 2237.59C2483.89 2235.47 2480.89 2233.91 2477.15 2232.91C2473.4 2231.79 2469.22 2230.86 2464.59 2230.11C2459.97 2229.36 2455.35 2228.49 2450.73 2227.49C2446.23 2226.49 2442.11 2225.05 2438.37 2223.18C2434.62 2221.19 2431.56 2218.51 2429.19 2215.14C2426.94 2211.77 2425.81 2207.28 2425.81 2201.67C2425.81 2196.3 2427.31 2191.5 2430.31 2187.26C2433.31 2183.02 2437.68 2179.71 2443.42 2177.34C2449.29 2174.85 2456.41 2173.6 2464.78 2173.6C2471.15 2173.6 2477.52 2174.47 2483.89 2176.22C2490.26 2177.84 2495.51 2180.03 2499.63 2182.77L2493.82 2193.43C2489.45 2190.44 2484.77 2188.32 2479.77 2187.07C2474.77 2185.7 2469.78 2185.01 2464.78 2185.01C2455.91 2185.01 2449.36 2186.57 2445.11 2189.69C2440.99 2192.69 2438.93 2196.55 2438.93 2201.29C2438.93 2205.03 2440.05 2207.97 2442.3 2210.09C2444.67 2212.21 2447.73 2213.89 2451.48 2215.14C2455.35 2216.26 2459.54 2217.2 2464.03 2217.95C2468.65 2218.69 2473.21 2219.63 2477.71 2220.75C2482.33 2221.75 2486.51 2223.18 2490.26 2225.05C2494.13 2226.8 2497.19 2229.36 2499.44 2232.73C2501.81 2235.97 2503 2240.27 2503 2245.64C2503 2251.37 2501.38 2256.36 2498.13 2260.6C2495.01 2264.72 2490.39 2267.96 2484.27 2270.33C2478.27 2272.58 2470.96 2273.7 2462.35 2273.7Z" fill="white"/>
</svg>
