<svg width="700" height="700" viewBox="0 0 700 700" fill="none" xmlns="http://www.w3.org/2000/svg">
<path fill-rule="evenodd" clip-rule="evenodd" d="M350.208 101.091C210.035 101.091 96.4015 212.737 96.4015 350.458C96.4015 488.18 210.035 599.825 350.208 599.825C490.382 599.825 604.015 488.18 604.015 350.458C604.015 212.737 490.382 101.091 350.208 101.091ZM40 350.458C40 182.132 178.885 45.6763 350.208 45.6763C521.532 45.6763 660.417 182.132 660.417 350.458C660.417 518.785 521.532 655.24 350.208 655.24C178.885 655.24 40 518.785 40 350.458Z" fill="white"/>
<path fill-rule="evenodd" clip-rule="evenodd" d="M40 350.459C40 335.157 52.6259 322.751 68.2008 322.751H632.216C647.791 322.751 660.417 335.157 660.417 350.459C660.417 365.761 647.791 378.166 632.216 378.166H68.2008C52.6259 378.166 40 365.761 40 350.459Z" fill="white"/>
<path fill-rule="evenodd" clip-rule="evenodd" d="M265.612 350.458C267.545 435.654 297.367 517.677 350.208 584.564C403.049 517.677 432.871 435.654 434.804 350.458C432.871 265.262 403.049 183.24 350.208 116.352C297.367 183.24 267.545 265.262 265.612 350.458ZM350.208 73.3838L329.386 54.6973C254.238 135.529 211.531 240.428 209.21 349.881C209.202 350.266 209.202 350.651 209.21 351.035C211.531 460.489 254.238 565.388 329.386 646.219C334.729 651.966 342.286 655.24 350.208 655.24C358.13 655.24 365.687 651.966 371.03 646.219C446.178 565.388 488.885 460.489 491.206 351.035C491.214 350.651 491.214 350.266 491.206 349.881C488.885 240.428 446.178 135.529 371.03 54.6973L350.208 73.3838Z" fill="white"/>
</svg>
